<svg xmlns="http://www.w3.org/2000/svg" xmlns:svg="http://www.w3.org/2000/svg" id="svg2" width="500" height="500" version="1.1"><metadata id="metadata7"/><g id="layer1" transform="translate(-2.5714111,-241.21923)"><path style="fill:#bfddcc;fill-opacity:1;stroke:none" id="rect3904-8" d="m 194.06697,391.79268 c -4.89924,0 -10.89792,3.76487 -13.44878,8.43254 l -136.832568,228.57691 0,7.96293 c 0,4.84507 3.113564,8.89144 7.344504,10.08638 l 44.745278,0 c 4.899236,0 10.878536,-3.76487 13.429396,-8.43254 L 251.89283,400.22522 c 2.55086,-4.66767 0.65531,-8.43254 -4.24393,-8.43254 l -53.58193,0 z"/><path style="fill:#ff6116;fill-opacity:1;stroke:none" id="path3883" d="m 314.16745,330.42854 c -87.37616,0 -158.19687,70.84113 -158.19687,158.21728 0,87.37616 70.82071,158.19687 158.19687,158.19687 87.37616,0 158.21729,-70.82071 158.21729,-158.19687 0,-87.37615 -70.84113,-158.21728 -158.21729,-158.21728 z m 0,56.35304 c 56.25107,0 101.86425,45.61317 101.86425,101.86424 0,56.25107 -45.61318,101.84383 -101.86425,101.84383 -56.25107,0 -101.84383,-45.59276 -101.84383,-101.84383 0,-56.25107 45.59276,-101.86424 101.84383,-101.86424 z"/><path style="fill:#ffca14;fill-opacity:1;stroke:none" id="path3883-0" d="m 314.16601,330.24186 c -99.74812,0 -158.3821,58.65729 -158.3821,158.40541 0,99.74811 58.63398,158.3821 158.3821,158.3821 99.74811,0 158.4054,-58.63399 158.4054,-158.3821 0,-99.74812 -58.65729,-158.40541 -158.4054,-158.40541 z m 0,68.25252 c 64.21589,0 90.15289,25.93699 90.15289,90.15289 0,64.2159 -25.937,90.12958 -90.15289,90.12958 -64.2159,0 -90.12959,-25.91368 -90.12959,-90.12958 0,-64.2159 25.91369,-90.15289 90.12959,-90.15289 z"/><rect style="fill:#474a4f;fill-opacity:1;stroke:none" id="rect3904-2" width="75.397" height="316.417" x="32.571" y="330.802" ry="10.452"/></g></svg>