<svg xmlns="http://www.w3.org/2000/svg" xmlns:xlink="http://www.w3.org/1999/xlink" id="Livello_1" x="0" y="0" version="1.1" viewBox="0 0 500 500" xml:space="preserve" style="enable-background:new 0 0 500 500"><style type="text/css">.st0{fill:#f2df61}.st1{fill:#fbf3c6}.st2{fill:#f7eb9d}.st3{fill:#2e2e2c}</style><metadata><?xpacket begin="﻿" id="W5M0MpCehiHzreSzNTczkc9d"?><?xpacket end="w"?></metadata><linearGradient id="SVGID_1_" x1="0" x2="0" y1="0" y2="-1" gradientUnits="userSpaceOnUse"><stop offset="0" style="stop-color:#656565"/><stop offset=".618" style="stop-color:#1b1b1b"/><stop offset=".629" style="stop-color:#545454"/><stop offset=".983" style="stop-color:#3e3e3e"/></linearGradient><g><polygon points="375.385 339.414 200.188 440.565 25 339.414 25 137.122 200.188 35.974 375.385 137.122" class="st0"/><g><polygon points="475 362.875 299.805 464.026 124.617 362.875 124.617 160.583 299.805 59.435 475 160.583" class="st1"/><polygon points="426.916 349.137 251.721 450.288 76.533 349.137 76.533 146.845 251.721 45.697 426.916 146.845" class="st2"/><g><polygon points="375.385 339.414 200.19 440.565 25.002 339.414 25.002 137.122 200.19 35.974 375.385 137.122" class="st0"/><g><path d="M105.517,165.446h16.894v140.125h-16.894V165.446z M126.121,305.571V165.446h16.898v140.125H126.121z" class="st3"/><path d="M161.359,235.509c0-42.241,34.825-71.709,75.214-71.709c40.391,0,75.213,29.469,75.213,71.709 c0,42.244-34.822,71.917-75.213,71.917C196.184,307.426,161.359,277.753,161.359,235.509z M294.479,235.509 c0-33.175-24.936-57.284-57.906-57.284s-57.904,24.109-57.904,57.284c0,33.178,24.934,57.492,57.904,57.492 S294.479,268.687,294.479,235.509z M182.378,235.509c0-31.115,23.284-53.574,54.195-53.574s54.196,22.459,54.196,53.574 s-23.285,53.782-54.196,53.782S182.378,266.624,182.378,235.509z M273.456,235.509c0-22.049-13.391-39.152-36.883-39.152 c-23.492,0-36.884,17.102-36.884,39.152s13.393,39.36,36.884,39.36C260.065,274.868,273.456,257.558,273.456,235.509z" class="st3"/></g></g></g></g></svg>