<svg xmlns="http://www.w3.org/2000/svg" xmlns:svg="http://www.w3.org/2000/svg" id="svg4619" width="300" height="300" version="1.1"><metadata id="metadata4624"/><g id="layer1" transform="translate(0,-752.36218)"><rect id="rect5225" width="300" height="300" x="0" y="752.362" style="fill:#fff;fill-opacity:1;fill-rule:nonzero;stroke:none"/><rect style="fill:#000;fill-opacity:1;fill-rule:nonzero;stroke:none" id="rect4713" width="300" height="300" x="300" y="752.362"/><g id="g4694"><g id="g5246"><path style="fill:#c0392b;fill-opacity:.5;fill-rule:evenodd;stroke:none" id="path4611" d="m 298.09701,895.25266 c 2.53732,4.3899 2.53732,9.80373 0,14.19337 l -67.85842,117.59327 c -2.53442,4.3973 -7.22212,7.1041 -12.30124,7.1041 l -135.819333,0 c -5.075688,0 -9.76025,-2.7068 -12.30152,-7.0964 L 1.9030076,909.45367 c -2.53734345,-4.39728 -2.53734345,-9.81111 0,-14.20839 L 69.816497,777.68239 c 2.54127,-4.39464 7.225832,-7.10169 12.30152,-7.10169 l 135.826693,0 c 5.07176,0 9.75946,2.70705 12.29388,7.10433 l 67.85842,117.56763"/><path id="path4613" d="m 142.89052,754.26512 c 4.38987,-2.53732 9.8036,-2.53732 14.19342,0 l 117.59311,67.85841 c 4.39738,2.53441 7.10423,7.22214 7.10423,12.30125 l 0,135.81945 c 0,5.07568 -2.70685,9.76025 -7.09666,12.30152 l -117.59303,67.91345 c -4.39747,2.5374 -9.8112,2.5374 -14.20851,0 L 25.320148,982.54575 c -4.39459,-2.54127 -7.101456,-7.22584 -7.101456,-12.30152 l 0,-135.82685 c 0,-5.07171 2.706866,-9.75946 7.10425,-12.29388 L 142.89052,754.26509" style="fill:#c0392b;fill-opacity:1;fill-rule:evenodd;stroke:none"/><g style="font-size:105.42503357px;font-style:normal;font-variant:normal;font-weight:400;font-stretch:normal;line-height:125%;letter-spacing:0;word-spacing:0;fill:#fff;fill-opacity:1;stroke:none;font-family:Monospace;-inkscape-font-specification:Monospace" id="text4615" transform="matrix(1.261604,0,0,1.261604,-62.139829,-246.73154)"><path style="font-weight:700;fill:#fff;font-family:Roboto;-inkscape-font-specification:Roboto Bold" id="path4688" d="m 206.96144,967.586 -15.0313,0 0,-55.69819 15.0313,0 0,55.69819 m 0,-69.03075 -15.0313,0 0,-11.27348 15.0313,0 0,11.27348"/><path style="font-weight:700;fill:#fff;font-family:Roboto;-inkscape-font-specification:Roboto Bold" id="path4690" d="m 217.05094,939.22213 c 0,-8.47652 2.28215,-15.32296 6.84645,-20.53935 4.56429,-5.21628 11.01607,-7.82445 19.35538,-7.82451 8.40788,6e-5 14.89399,2.60823 19.45833,7.82451 4.59857,5.21639 6.89787,12.06283 6.89793,20.53935 l 0,1.08102 c -6e-5,8.54521 -2.2822,15.40882 -6.84645,20.59083 -4.56435,5.14771 -11.03329,7.72156 -19.40685,7.72156 -8.40795,0 -14.89405,-2.57385 -19.45834,-7.72156 -4.5643,-5.18201 -6.84645,-12.04562 -6.84645,-20.59083 l 0,-1.08102 m 14.97983,1.08102 c -2e-5,5.18205 0.87509,9.28305 2.62533,12.30302 1.7502,2.98568 4.65007,4.47852 8.69963,4.47851 3.94654,10e-6 6.79493,-1.50999 8.54519,-4.52999 1.7845,-3.01996 2.67676,-7.10381 2.67681,-12.25154 l 0,-1.08102 c -5e-5,-5.04471 -0.89231,-9.09424 -2.67681,-12.14858 -1.78458,-3.08858 -4.66729,-4.63289 -8.64815,-4.63294 -3.9466,5e-5 -6.81215,1.54436 -8.59667,4.63294 -1.75024,3.08866 -2.62535,7.13818 -2.62533,12.14858 l 0,1.08102"/></g></g><g id="g5253" transform="translate(300,0)"><path id="path5255" d="m 298.09701,895.25266 c 2.53732,4.3899 2.53732,9.80373 0,14.19337 l -67.85842,117.59327 c -2.53442,4.3973 -7.22212,7.1041 -12.30124,7.1041 l -135.819333,0 c -5.075688,0 -9.76025,-2.7068 -12.30152,-7.0964 L 1.9030076,909.45367 c -2.53734345,-4.39728 -2.53734345,-9.81111 0,-14.20839 L 69.816497,777.68239 c 2.54127,-4.39464 7.225832,-7.10169 12.30152,-7.10169 l 135.826693,0 c 5.07176,0 9.75946,2.70705 12.29388,7.10433 l 67.85842,117.56763" style="fill:#c0392b;fill-opacity:.5;fill-rule:evenodd;stroke:none"/><path style="fill:#c0392b;fill-opacity:1;fill-rule:evenodd;stroke:none" id="path5257" d="m 142.89052,754.26512 c 4.38987,-2.53732 9.8036,-2.53732 14.19342,0 l 117.59311,67.85841 c 4.39738,2.53441 7.10423,7.22214 7.10423,12.30125 l 0,135.81945 c 0,5.07568 -2.70685,9.76025 -7.09666,12.30152 l -117.59303,67.91345 c -4.39747,2.5374 -9.8112,2.5374 -14.20851,0 L 25.320148,982.54575 c -4.39459,-2.54127 -7.101456,-7.22584 -7.101456,-12.30152 l 0,-135.82685 c 0,-5.07171 2.706866,-9.75946 7.10425,-12.29388 L 142.89052,754.26509"/><g id="g5259" transform="matrix(1.261604,0,0,1.261604,-62.139829,-246.73154)" style="font-size:105.42503357px;font-style:normal;font-variant:normal;font-weight:400;font-stretch:normal;line-height:125%;letter-spacing:0;word-spacing:0;fill:#fff;fill-opacity:1;stroke:none;font-family:Monospace;-inkscape-font-specification:Monospace"><path id="path5261" d="m 206.96144,967.586 -15.0313,0 0,-55.69819 15.0313,0 0,55.69819 m 0,-69.03075 -15.0313,0 0,-11.27348 15.0313,0 0,11.27348" style="font-weight:700;fill:#fff;font-family:Roboto;-inkscape-font-specification:Roboto Bold"/><path id="path5263" d="m 217.05094,939.22213 c 0,-8.47652 2.28215,-15.32296 6.84645,-20.53935 4.56429,-5.21628 11.01607,-7.82445 19.35538,-7.82451 8.40788,6e-5 14.89399,2.60823 19.45833,7.82451 4.59857,5.21639 6.89787,12.06283 6.89793,20.53935 l 0,1.08102 c -6e-5,8.54521 -2.2822,15.40882 -6.84645,20.59083 -4.56435,5.14771 -11.03329,7.72156 -19.40685,7.72156 -8.40795,0 -14.89405,-2.57385 -19.45834,-7.72156 -4.5643,-5.18201 -6.84645,-12.04562 -6.84645,-20.59083 l 0,-1.08102 m 14.97983,1.08102 c -2e-5,5.18205 0.87509,9.28305 2.62533,12.30302 1.7502,2.98568 4.65007,4.47852 8.69963,4.47851 3.94654,10e-6 6.79493,-1.50999 8.54519,-4.52999 1.7845,-3.01996 2.67676,-7.10381 2.67681,-12.25154 l 0,-1.08102 c -5e-5,-5.04471 -0.89231,-9.09424 -2.67681,-12.14858 -1.78458,-3.08858 -4.66729,-4.63289 -8.64815,-4.63294 -3.9466,5e-5 -6.81215,1.54436 -8.59667,4.63294 -1.75024,3.08866 -2.62535,7.13818 -2.62533,12.14858 l 0,1.08102" style="font-weight:700;fill:#fff;font-family:Roboto;-inkscape-font-specification:Roboto Bold"/></g></g></g></g></svg>