<svg xmlns="http://www.w3.org/2000/svg" xmlns:osb="http://www.openswatchbook.org/uri/2009/osb" xmlns:svg="http://www.w3.org/2000/svg" id="svg2" width="500" height="500" version="1.1"><defs id="defs4"><linearGradient id="linearGradient5941" osb:paint="solid"><stop style="stop-color:#bfbfbf;stop-opacity:1" id="stop5943" offset="0"/></linearGradient><marker id="Arrow1Lstart" orient="auto" refX="0" refY="0" style="overflow:visible"><path id="path5295" d="M 0.0,0.0 L 5.0,-5.0 L -12.5,0.0 L 5.0,5.0 L 0.0,0.0 z" transform="scale(0.8) translate(12.5,0)" style="fill-rule:evenodd;stroke:#000;stroke-width:1pt"/></marker><linearGradient id="linearGradient5285" osb:paint="solid"><stop style="stop-color:#0f0;stop-opacity:1" id="stop5287" offset="0"/></linearGradient><linearGradient id="linearGradient3811" osb:paint="solid"><stop style="stop-color:#fff;stop-opacity:1" id="stop3813" offset="0"/></linearGradient></defs><metadata id="metadata7"/><g id="layer1" transform="translate(0,-552.36218)"><path style="fill:#ffbf3f;fill-opacity:1;fill-rule:nonzero;stroke:#ff7f3f;stroke-width:24.99977303;stroke-linecap:round;stroke-linejoin:round;stroke-miterlimit:4;stroke-opacity:1;stroke-dasharray:none;stroke-dashoffset:0;marker-start:none;marker-mid:none" id="path3041" d="m 210.89973,587.13603 -158.399843,91.28284 0,227.62896 L 250,1019.8623 447.50011,906.04783 l 0,-227.62896 -158.39984,-91.28284 0,84.22021 -78.20054,0 0,-84.22021 z M 250,739.73245 c 48.29478,0 87.44471,39.17536 87.44471,87.50151 0,48.32617 -39.14993,87.50153 -87.44471,87.50153 -48.29478,0 -87.44471,-39.17536 -87.44471,-87.50153 0,-48.32615 39.14993,-87.50151 87.44471,-87.50151 z"/></g></svg>