<svg xmlns="http://www.w3.org/2000/svg" xmlns:xlink="http://www.w3.org/1999/xlink" id="Capa_1" x="0" y="0" enable-background="new 0 0 660 900" version="1.1" viewBox="0 0 660 900" xml:space="preserve"><metadata><sfw xmlns="http://ns.adobe.com/SaveForWeb/1.0/"><slices/><sliceSourceBounds width="660" height="810" x="0" y="-900" bottomLeftOrigin="true"/></sfw></metadata><switch><g><g><g><g><g><path fill="#333" d="M359,122c0.9,11.7,0.4,21.8-6.3,34c-11.4-3.5-18.1-7.6-22.5-10.4C330.3,145.7,341.5,130.1,359,122 M365.6,110.7l-9.8,4.5c-17.4,8-29,22.5-31.3,25.5l-6.2,6.2l7.8,5c5.5,3.5,12.7,7.7,24.3,11.2l5.8,1.8l2.9-5.3 c3.6-6.5,5.8-12.9,6.8-19.7c1-6.8,0.8-13.2,0.3-18.5L365.6,110.7L365.6,110.7z"/></g><g><path fill="#665F5D" d="M352.7,156c6.7-12.2,7.2-22.3,6.3-34c-17.5,8.1-28.7,23.6-28.7,23.6 C334.6,148.5,341.3,152.5,352.7,156z"/></g><g><path fill="#59504E" d="M338.5,150.2c3.7,1.9,8.3,3.7,14.2,5.5c5.5-10,6.8-18.4,6.6-28h0C359.3,127.6,346.6,132.9,338.5,150.2 z"/></g><g><path fill="#333" d="M353.8,158.7l-1.7-0.5c-5.3-1.6-10.1-3.5-14.6-5.8l-2-1l0.9-2c8.4-17.9,21.5-23.2,22-23.4l0.8-0.3 l2.3,0.8l0,1.6c0.3,11.1-1.8,19.8-6.9,29L353.8,158.7z M341.5,149.4c3.1,1.5,6.5,2.8,10.1,4c2.1-4,3.5-8,4.4-12 c0.6-3,1-6,1.1-9.4c-1.1,0.7-2.4,1.6-3.9,2.8C349.9,137.4,345.3,142.1,341.5,149.4z"/></g></g><g><path fill="#665F5D" d="M204.5,94.6c0,0,51.6,10.1,83.1,82.3c17.1-18.5,29.6-34.7,35.9-34.7c6.3,0,17.5,21.1,89.8,21.1 c37.3,0,42.7,9.4,42.7,18c0,8.5-2.2,17.1-12.1,17.1s-30.1-4.5-47.2,5.8c-17.1,10.3-55.2,51.6-55.2,58.8 c0,7.2,34.6,54.8,44.9,60.6c10.3,5.8,36.8-10.3,44-12.6c7.2-2.2-0.9,15.7-8.1,26c-7.2,10.3-18.9,23.4-18.9,26.5 c-8.1-3.6-20.2-7.6-20.2-7.6s-10.1,9.9-12.8,21.3c-3.3,13.9-40.2,18.3-73.4,18.3c-98.8,0-112.3-120.3-37.7-194.9 C259.3,200.6,214,180.9,204.5,94.6z"/></g><path fill="#59504E" d="M258.3,383.8c-13.9-12.7-23.2-21.1-32.8-49.7c-6.9-20.7-4.1-47.1,2.7-65.6 c12.1-32.9,28.5-49.4,38.2-59.4c11.9-12.3,8-15.7,10.6-25.5l-28.9,9.4c6.6,5.5,11.2,7.6,11.2,7.6 c-64.5,64.5-63.1,163.3,2.4,188.7C261.5,387.6,260.4,385.7,258.3,383.8z"/><path fill="#59504E" d="M220.2,116.8c0,0-1.1,27.7,7.3,44.3c8.4,16.6,27.8,37.3,27.8,37.3l10.5,1c0,0,10.1-8.6,11.2-15.7 C277.9,177.6,271.5,156.5,220.2,116.8z"/><g><path fill="#333" d="M394.6,309.8c0,0,0.1-0.1,0.1-0.2l-4.3-1.2c0.4-1.5,1.9-2.8,4.8-4.1c2-0.9,4.6-1.9,7.9-2.8 c5.8-1.7,12.8-3.1,17.4-3.6l0.2,2.1l2.3,0.3l-0.3,1.9l-1.8,0.2c-4.1,0.4-10.4,1.6-15.8,3.2C396,308.1,394.7,309.8,394.6,309.8z"/></g><g><path fill="#333" d="M286.5,183.7l-2.3-5.3c-0.3-0.8-0.7-1.7-1.2-2.6l-0.7-1.6l1-2.1l0.4-0.4c0.1-0.1,2.1-2.4,4.5-7 c2.3-4.3,5.4-11.6,7.3-22l2.4-13.3l4.7,12.7c0.2,0.5,0.3,0.9,0.5,1.4c1.3-2.4,2.6-5.5,3.4-9l3.5-15l3.7,15 c0,0.1,0.1,0.3,0.1,0.4c2.1-2.1,4.8-4.2,7.9-5.6l9.6-4.4l-4.7,9.4c0,0,0,0,0,0l9.6,1l-7.7,5.8c-0.1,0.1-0.1,0.1-0.1,0.1 c0.1-0.1,0.2-0.3,0.1-0.6c0-0.1-0.1-0.3-0.3-0.5l-3.8,6.5c-0.7-0.4-1-0.5-1.1-0.5c-0.4,0-2.3,0.5-7.4,5.4 c-4.1,3.9-9,9.5-14.8,15.9c-3.5,3.9-7.1,7.9-11,12.2L286.5,183.7z"/></g><path fill="#59504E" d="M366,348.1c-4.3-6.5-14.2-28.2-26.6-32.2c-12.4-4-13.5-5.2-22.3-7.8c-8.8-2.6-31.8-15-31.8-15l-18-19.6 l-5.9-7.5c-0.4,15.9,0.2,28.9,35.6,42.8c33.1,13,38.7,9.6,44.5,25.6l0.8-1.9c-0.3-0.1,10.6,6.1,11.6,18.1l2.9-1.3 c0,0,6.9,7.5,2.7,17.8c-4.2,10.3-8,19.1-17.1,21.2c-1.4,0.3,8.7,0.7,10.4,1.4c9.6-2.8,16.3-6.9,17.6-12.4c2-8.6,4.8-18,7.7-21.3 C378.2,356,372.1,357.1,366,348.1z"/><g><path fill="#333" d="M264.2,239c0,0,0.1,0.4,0.2,1.1c0.1,0.4,0.1,0.8,0.2,1.3c0.1,0.5,0.2,1.1,0.3,1.8 c0.2,1.3,0.4,3,0.6,4.8c0.2,1.9,0.4,4,0.7,6.3c0.2,2.3,0.5,4.7,0.8,7.3c0.3,2.5,0.7,5.2,1.3,7.7c0.3,1.3,0.7,2.5,1.2,3.7 c0.5,1.2,1.1,2.3,1.7,3.4l0.3,0.4l0.3,0.4c0.1,0.1,0.2,0.3,0.3,0.4l0.3,0.4c0.4,0.5,0.8,1,1.3,1.5c0.9,1,1.9,1.9,3,2.8 c1.1,0.9,2.2,1.8,3.4,2.6c1.2,0.8,2.4,1.6,3.6,2.4c2.4,1.6,4.9,3.1,7.4,4.5c2.5,1.4,4.8,2.8,7.1,4.2c2.3,1.3,4.4,2.6,6.4,3.8 c2,1.2,3.8,2.3,5.3,3.3c1.6,1,3,1.9,4.1,2.7c0.6,0.4,1.1,0.7,1.5,1c0.4,0.3,0.8,0.6,1.1,0.8c0.6,0.4,0.9,0.7,0.9,0.7 s-0.4-0.1-1.1-0.3c-0.4-0.1-0.8-0.2-1.3-0.3c-0.5-0.1-1.1-0.3-1.7-0.5c-1.3-0.4-2.9-0.9-4.7-1.4c-1.8-0.6-3.8-1.3-6-2.1 c-4.3-1.6-9.4-3.6-14.6-6c-2.6-1.2-5.3-2.6-8-4.2c-0.7-0.4-1.3-0.8-2-1.2c-0.3-0.2-0.7-0.4-1-0.6c-0.3-0.2-0.7-0.4-1-0.7 c-1.3-0.9-2.6-1.9-3.9-3c-1.3-1.1-2.5-2.2-3.6-3.6c-0.3-0.3-0.6-0.7-0.8-1c-0.3-0.3-0.5-0.7-0.8-1l-0.4-0.5 c-0.1-0.2-0.2-0.4-0.4-0.5c-0.1-0.2-0.2-0.4-0.4-0.6l-0.3-0.6c-0.2-0.4-0.4-0.8-0.6-1.1c-0.2-0.4-0.4-0.8-0.6-1.2 c-0.2-0.4-0.3-0.8-0.5-1.2c-0.1-0.4-0.3-0.8-0.4-1.2c-0.5-1.6-0.9-3.2-1.1-4.7c-0.2-1.6-0.4-3.1-0.4-4.5c0-0.2,0-0.4,0-0.5 c0-0.2,0-0.4,0-0.5c0-0.4,0-0.7,0-1.1c0-0.4,0-0.7,0-1c0-0.3,0-0.7,0-1c0.1-2.7,0.3-5.2,0.5-7.5c0.2-2.3,0.5-4.4,0.8-6.3 c0.3-1.9,0.5-3.5,0.7-4.8c0.1-0.3,0.1-0.7,0.2-0.9c0.1-0.3,0.1-0.6,0.1-0.8c0.1-0.5,0.2-1,0.2-1.3 C264.1,239.3,264.2,239,264.2,239z"/></g><g><path fill="#333" d="M362.6,206c0,0,0-0.1,0.1-0.3c0.1-0.2,0.2-0.4,0.3-0.7c0.1-0.3,0.3-0.6,0.5-1c0.2-0.4,0.4-0.8,0.7-1.3 c0.3-0.5,0.6-0.9,0.9-1.4c0.3-0.5,0.6-1,1-1.5c0.1-0.1,0.2-0.3,0.3-0.4c0.1-0.1,0.2-0.3,0.3-0.4c0.2-0.3,0.3-0.5,0.5-0.8 c0.2-0.3,0.3-0.5,0.5-0.8c0.2-0.3,0.3-0.5,0.5-0.8l0.3-0.4c0.1-0.1,0.2-0.3,0.2-0.4c0.1-0.3,0.3-0.5,0.5-0.8 c0.1-0.1,0.1-0.3,0.2-0.4c0.1-0.1,0.2-0.3,0.2-0.4c0.1-0.3,0.3-0.5,0.4-0.8c0.2-0.2,0.3-0.5,0.4-0.8c0.1-0.1,0.1-0.2,0.2-0.4 c0.1-0.1,0.1-0.2,0.2-0.4c0.1-0.2,0.2-0.5,0.4-0.7c0.1-0.2,0.2-0.5,0.3-0.7c0.1-0.2,0.2-0.4,0.3-0.7c0.1-0.2,0.2-0.4,0.3-0.6 c0.1-0.2,0.2-0.4,0.3-0.5c0.1-0.2,0.2-0.3,0.2-0.5c0.1-0.3,0.3-0.5,0.4-0.7c0.1-0.2,0.1-0.2,0.1-0.2s0,0.1,0.1,0.3 c0.1,0.2,0.2,0.4,0.3,0.7c0.1,0.2,0.1,0.3,0.2,0.5c0.1,0.2,0.1,0.4,0.1,0.6c0,0.2,0.1,0.5,0.1,0.7c0,0.1,0,0.3,0,0.4 c0,0.1,0,0.3,0,0.4c0,0.3,0,0.6,0,0.9c0,0.3,0,0.6,0,0.9c0,0.3-0.1,0.7-0.1,1c0,0.2-0.1,0.3-0.1,0.5c0,0.1,0,0.2-0.1,0.3 c0,0.1,0,0.2-0.1,0.3c-0.1,0.3-0.2,0.7-0.3,1.1c-0.1,0.2-0.1,0.3-0.2,0.5c-0.1,0.2-0.1,0.3-0.2,0.5c-0.1,0.2-0.2,0.3-0.2,0.5 c-0.1,0.2-0.2,0.3-0.3,0.5c-0.1,0.2-0.2,0.3-0.3,0.5l-0.3,0.5l-0.3,0.5c-0.1,0.2-0.2,0.3-0.3,0.4c-0.1,0.1-0.2,0.3-0.3,0.4 c-0.1,0.1-0.2,0.3-0.4,0.4c-0.2,0.3-0.5,0.5-0.7,0.8c-0.2,0.3-0.5,0.5-0.8,0.7c-0.5,0.5-1,0.8-1.5,1.2c-0.5,0.4-1,0.7-1.5,0.9 c-0.5,0.3-0.9,0.5-1.3,0.7c-0.4,0.2-0.8,0.3-1.1,0.4c-0.3,0.1-0.6,0.2-0.7,0.2C362.7,206,362.6,206,362.6,206z"/></g><g><path fill="#333" d="M236,168.6c-0.3-0.4-0.6-0.9-0.9-1.3l-0.4-0.7l-0.4-0.7c-0.3-0.5-0.6-0.9-0.8-1.4l-0.8-1.4 c-0.1-0.2-0.3-0.5-0.4-0.7l-0.4-0.7c-0.2-0.5-0.5-0.9-0.7-1.4c-0.5-1-0.9-1.9-1.4-2.9c-0.5-1-0.9-2-1.3-2.9 c-0.2-0.5-0.4-1-0.6-1.5c-0.2-0.5-0.4-1-0.6-1.5l-0.6-1.5l-0.5-1.5c-0.2-0.5-0.3-1-0.5-1.5c-0.2-0.5-0.3-1-0.5-1.5l-0.5-1.5 l-0.4-1.5c-0.1-0.5-0.3-1-0.4-1.5c-0.1-0.5-0.3-1-0.4-1.6c-0.3-1-0.5-2.1-0.7-3.1l-0.3-1.6l-0.3-1.6c-0.1-0.5-0.2-1.1-0.3-1.6 l-0.3-1.6c-0.2-1.1-0.3-2.1-0.5-3.2c-0.2-1.1-0.3-2.1-0.4-3.2c-0.1-0.5-0.1-1.1-0.2-1.6l-0.1-0.8c0-0.3,0-0.5-0.1-0.8l-0.2-3.4 l3.2,1.4c1.7,0.7,3.4,1.6,5,2.5c1.6,0.9,3.2,1.9,4.7,3c1.5,1,3,2.1,4.4,3.3c1.5,1.1,2.9,2.3,4.2,3.5c1.4,1.2,2.7,2.4,4.1,3.7 c1.3,1.2,2.6,2.5,3.9,3.8c0.6,0.6,1.3,1.3,1.9,2l0.9,1l0.9,1c0.6,0.7,1.2,1.3,1.8,2c0.6,0.7,1.2,1.4,1.8,2.1 c1.2,1.4,2.3,2.8,3.5,4.2c1.1,1.4,2.2,2.9,3.3,4.3c1.1,1.5,2.1,2.9,3.1,4.4c1,1.5,2,3,3,4.6c0.9,1.6,1.9,3.1,2.7,4.7l0.6,1.2 l0.6,1.2c0.4,0.8,0.8,1.6,1.1,2.5c0.7,1.7,1.4,3.4,1.8,5.2c0.2,0.9,0.4,1.8,0.4,2.7c0.1,0.9,0,1.9-0.3,2.7 c0.1-0.4,0.1-0.9,0.1-1.3c0-0.1,0-0.2,0-0.3l0-0.3c0-0.2-0.1-0.4-0.1-0.7c-0.2-0.9-0.5-1.7-0.8-2.5l-0.3-0.6 c-0.1-0.2-0.2-0.4-0.3-0.6l-0.1-0.3l-0.1-0.3l-0.3-0.6c-0.2-0.4-0.4-0.8-0.6-1.2l-0.3-0.6l-0.3-0.6c-0.4-0.8-0.9-1.5-1.4-2.3 l-0.7-1.1l-0.7-1.1c-1-1.5-2-2.9-3.1-4.4c-1.1-1.4-2.1-2.8-3.2-4.2c-1.1-1.4-2.2-2.8-3.4-4.1c-1.1-1.4-2.3-2.7-3.5-4 c-1.2-1.3-2.4-2.6-3.6-3.9c-0.6-0.6-1.2-1.3-1.8-1.9c-0.6-0.6-1.2-1.3-1.8-1.9c-1.2-1.3-2.5-2.5-3.8-3.7 c-1.3-1.2-2.6-2.5-3.9-3.6c-1.3-1.2-2.6-2.4-4-3.5c-1.3-1.1-2.7-2.2-4.1-3.3c-1.4-1.1-2.8-2.1-4.2-3.1c-1.4-1-2.9-2-4.4-2.8 c-1.5-0.9-1.2,0.7-1.1,1.7c0.1,1,0.2,2.1,0.3,3.1l0.2,1.6l0.2,1.5l0.2,1.5l0.2,1.5c0.1,0.5,0.2,1,0.3,1.5 c0.1,0.5,0.2,1,0.3,1.5c0.1,0.5,0.2,1,0.3,1.5c0.1,0.5,0.2,1,0.3,1.5l0.3,1.5l0.3,1.5c0.1,0.5,0.2,1,0.4,1.5 c0.1,0.5,0.2,1,0.4,1.5l0.4,1.5l0.4,1.5c0.1,0.3,0.1,0.5,0.2,0.8l0.2,0.8c0.1,0.5,0.3,1,0.4,1.5l0.5,1.5 c0.1,0.3,0.2,0.5,0.2,0.7l0.2,0.7c0.3,1,0.7,2,1,3c0.2,0.5,0.4,1,0.5,1.5l0.3,0.7c0.1,0.2,0.2,0.5,0.3,0.7l0.6,1.5l0.6,1.5 l0.3,0.7l0.3,0.7C235.6,167.6,235.8,168.1,236,168.6z"/></g><g><path fill="#333" d="M297,399.3c-20,0-37.4-4.7-51.6-14.1c-6.7-4.4-12.7-9.8-17.7-16.1c-4.9-6.1-8.9-13-12.1-20.5 c-4.5-10.8-7-22.8-7.5-35.6c-0.5-12.7,0.9-25.9,4.4-39.1c3.5-13.5,8.9-26.8,16.2-39.4c6.8-11.8,15-22.9,24.6-33 c-4.7-3-12.5-8.9-20.7-19.2c-7.5-9.4-13.9-20.6-18.9-33.3c-6.3-15.8-10.6-33.9-12.8-53.9l-0.6-5.1l5,1 c0.6,0.1,13.9,2.8,31.1,14.7c10.1,6.9,19.4,15.5,27.8,25.6c9.4,11.2,17.6,24.3,24.4,39c2.4-2.7,4.8-5.3,7.1-7.9 c14.4-16.1,21.5-23.8,27.8-23.8c2.5,0,4.7,1.4,7.8,3.4c4.4,2.8,11,7.2,23.5,10.9c15.2,4.5,34.9,6.9,58.6,6.9 c17.6,0,29.8,2.1,37.2,6.3c6.2,3.5,9.2,8.6,9.2,15.4c0,5.7-0.9,10.2-2.8,13.6c-2.7,4.7-7.2,7.2-13,7.2c-2.1,0-4.6-0.2-7.4-0.4 c-3.5-0.3-7.5-0.6-11.7-0.6c-10.7,0-19,2-26.1,6.3c-7.3,4.4-19.8,15.6-32.5,29.2c-5.7,6.1-11,12.2-14.8,17 c-5,6.5-6,8.9-6.2,9.5c0.1,0.6,1,3.2,5.5,10.4c3.3,5.4,7.9,12,12.8,18.7c10.6,14.3,20.7,25.9,24.7,28.2 c0.9,0.5,2.2,0.8,3.8,0.8c7.8,0,20.2-5.9,28.3-9.8c3.8-1.8,6.8-3.3,8.9-3.9c0.8-0.2,1.5-0.4,2.2-0.4c2,0,3.8,1,4.7,2.8 c1,1.9,1.6,5.1-2.3,14.1c-2.2,5.1-5.4,10.8-8.5,15.2c-2.8,4-6.7,8.2-9.9,12.3C412,356,408,362,406,363.9v5.5l-4.7-2.3 c-5.8-2.6-13.5-5.4-17.3-6.7c-2.8,3.1-8.3,10.2-10.1,17.8c-1,4.4-4.4,8.2-10,11.2c-4.5,2.4-10.6,4.4-18.3,6 C329.6,398.6,310.4,399.3,297,399.3z M208.9,99.8c2.2,17,6.1,32.4,11.5,46c4.7,12,10.7,22.5,17.6,31.4c11.8,15,22.7,20,22.8,20 l5,2.2l-3.9,3.9c-10.5,10.5-19.6,22.3-26.8,34.9c-6.9,12-12.1,24.7-15.4,37.6c-6.5,25.1-5.5,49.9,2.8,70 c2.9,6.9,6.5,13.2,11,18.7c4.6,5.7,9.9,10.5,16,14.5c13,8.5,29,12.9,47.5,12.9c13,0,31.7-0.7,47.2-3.8 c6.9-1.4,12.4-3.2,16.3-5.3c3.7-1.9,5.8-4.1,6.3-6.3c2.9-12.3,13.4-22.6,13.9-23.1l1.6-1.6l2.2,0.7c0.4,0.1,9.4,3.1,17.1,6.3 c1.6-2.6,4.3-6.2,8.7-11.8c3.1-4,6.4-8.2,9-12c2.6-3.8,5.4-8.7,7.4-13.1c1.3-2.8,2-4.9,2.4-6.3c-1.5,0.7-3.4,1.6-5.4,2.5 c-9.3,4.4-22.1,10.5-31.6,10.5c-2.9,0-5.5-0.6-7.5-1.7c-7.7-4.3-23-24.7-27.5-30.8c-5.1-7-9.8-13.9-13.2-19.4 c-5.4-8.8-6.1-11.8-6.1-13.6c0-1.9,0.8-4.9,7-13c3.8-5,9.2-11.3,15.2-17.7c10.5-11.3,25.2-25.4,34.8-31.2 c8.2-4.9,18-7.3,30-7.3c4.5,0,8.6,0.3,12.2,0.6c2.7,0.2,5,0.4,6.9,0.4c2.5,0,8.4,0,8.4-13.3c0-3.9,0-14.2-38.9-14.2 c-24.4,0-44.8-2.4-60.7-7.2c-13.5-4-20.9-8.9-25.4-11.8c-1.5-1-3.1-2-3.7-2.2c-0.4,0-2.3,0.5-7.4,5.4c-4.1,3.9-9,9.5-14.8,15.9 c-3.5,3.9-7.1,7.9-11,12.2l-3.9,4.2l-2.3-5.3c-7-16.1-15.7-30.4-25.7-42.4c-8-9.6-16.8-17.7-26.3-24.2 C222.4,105.1,214,101.5,208.9,99.8z"/></g><g><g><path fill="#78191F" d="M411.5,198.6c0.4-0.1,0.8-0.2,1.2-0.2c-5.3,1-10.8,2.7-15.9,5.8c-17.1,10.3-55.2,51.6-55.2,58.8 c0,7.2,34.6,54.8,44.9,60.6c1.6,0.9,3.5,1.3,5.7,1.3c-0.6,0-1.2,0-1.7-0.1l-1-0.1c0,0-0.1,0-0.1,0c0-0.2,2-11.5,3.2-15.7 c1-3.3,19.2-8,28.1-8.9l0-0.1c0,0-9.9,0.6-19.5-10.2c-9.6-10.8-16.2-17.7-16.2-20.7c0-3,25-37.8,39.4-48.7 c-2.3-0.3-4.1-0.9-5-1.6C416.2,216.2,412.4,202.9,411.5,198.6z"/></g></g><g><path fill="#333" d="M420.4,302.3c-2.2,0-11.7-0.6-20.8-10.9c-1.3-1.5-2.6-2.9-3.7-4.2c-9.2-10.3-13-14.6-13-18 c0-0.7,0-1.8,4.5-8.6c2.8-4.1,6.4-9.1,10.3-14.2c4.1-5.3,13.7-17.4,22.1-24.9c-0.7-0.3-1.2-0.6-1.6-1l2.8-3.5 c0.1,0.1,0.9,0.7,3.9,1.1l5.3,0.8l-4.3,3.2c-5.9,4.4-14.6,13.9-24.1,26.1c-8.1,10.4-13.7,19-14.4,20.9c0.1,0.4,0.6,1.6,3,4.6 c2.1,2.7,5.2,6.2,8.9,10.2c1.2,1.3,2.4,2.7,3.7,4.2c2.5,2.8,6.6,6.6,12.1,8.4c3.3,1.1,5.5,1,5.5,1l0.3,4.5 C420.8,302.2,420.7,302.3,420.4,302.3z"/></g><g><path fill="#FFF" d="M425.2,300.3c-3-1.8-31.4,4.5-32.6,8.7c-1.2,4.2-3.2,15.5-3.2,15.7c0,0,0.1,0,0.1,0l1,0.1 c12,1.2,33.6-11.8,40-13.8c0.6-0.2,1-0.2,1.4-0.2l0,0C431.8,310.9,428.2,302.1,425.2,300.3z"/></g><g><path fill="#FFF" d="M422.3,337.1c7.2-10.3,15.3-28.3,8.1-26c-7.2,2.2-33.7,18.4-44,12.6c-10.3-5.8-44.9-53.4-44.9-60.6 c0-7.2,38.2-48.5,55.2-58.8c17.1-10.3,37.3-5.8,47.2-5.8s12.1-8.5,12.1-17.1s-5.4-18-42.7-18c-17.5,0-30.1,7.2-31.2,19 c-1.5,15.6,0.3,16.2-26.3,41.3c-27.8,26.2-38.6,34.7-38.6,34.7s6.2,10.8,28.3,42.7c22.1,31.8,23.3,49.6,37.8,54.9 c0,0,12.1,4,20.2,7.6C403.5,360.5,415.1,347.5,422.3,337.1z"/></g><path fill="#CCC" d="M396.7,204.2c17.1-10.3,37.3-5.8,47.2-5.8c7.7,0,10.7-5.1,11.7-11.4l-1.9-3.7c0,7.4-8.1,8-40.1,8 c-27.1,0-77.3,63.6-74.4,71.8c0.3-0.3,1.2-0.9,2.6-1.6C346,251,380.7,213.9,396.7,204.2z"/><path fill="#CCC" d="M428.3,321.9c-9.2,18.6-16.9,22.4-32.4,26.6c-15.6,4.2-42.8-39.9-46.9-46.3l-1.1,2.4 c19.8,29.6,21.4,46.3,35.4,51.3c0,0,12.1,4,20.2,7.6c0-3.1,11.7-16.2,18.9-26.5c2.2-3.2,4.5-7.1,6.4-10.9 C428.8,324.2,428.7,322.8,428.3,321.9z"/><g><path fill="#333" d="M404,367.1l-2.5-1.4c-7.9-3.5-19.5-7.5-19.5-7.6v0c-12-3.4-13.4-11.6-19.9-24 c-4.4-8.4-9.7-18.9-18.6-31.7c-21.9-31.7-28.1-42.4-28.4-42.9l-0.9-1.7l1.5-1.2c0.1-0.1,11.1-8.8,38.5-34.6 c11.4-10.8,18.2-17.6,21.6-22.7c3-4.6,3.3-7.8,3.8-14.1c0.1-1,0.2-2,0.3-3.1c1.2-12.8,14.4-21.1,33.5-21.1 c17.3,0,29.2,2,36.4,6.1c5.7,3.3,8.5,7.9,8.5,14.1c0,16-7.8,19.3-14.4,19.3c-2.1,0-4.5-0.2-7.3-0.4c-3.5-0.3-7.5-0.6-11.8-0.6 c-11,0-19.5,2.1-26.9,6.5c-7.5,4.5-20.6,16.3-33.4,30.1c-5.8,6.3-11.1,12.4-14.8,17.3c-5.8,7.5-5.9,9.5-5.9,9.6 c0,0.2,0.1,2.2,5.2,10.5c3.3,5.4,7.9,12.1,12.9,19c11,15,21.3,26.8,25.6,29.2c1.1,0.6,2.7,1,4.6,1c8.1,0,20.7-6,29-9.9 c3.8-1.8,6.7-3.2,8.7-3.8c0.6-0.2,1.2-0.3,1.8-0.3c1.5,0,2.7,0.7,3.4,2c0.8,1.4,1.3,4.3-2.3,12.8c-2.2,5-5.3,10.6-8.4,15 c-2.7,3.9-6,8.2-9.2,12.2c-2.4,3.1-5.6,6.1-7.3,8.5c-2.3,3.3-3.6,4.3-3.6,4.5V367.1z M384,353.9c0.7,0.2,10.4,3.5,18.2,6.7 c1.4-2.6,4.2-6.4,9.2-12.7c3.2-4,6.4-8.2,9.1-12c2.8-4.1,5.8-9.3,7.8-14c2.2-4.9,2.6-7.5,2.7-8.6c-1.7,0.5-4.6,1.9-8,3.5 c-9.2,4.4-21.8,10.4-30.9,10.4c-2.7,0-5-0.5-6.8-1.6c-5.9-3.3-17.8-17.9-27-30.4c-5.1-6.9-9.8-13.8-13.1-19.3 c-5.9-9.6-5.9-12-5.9-12.9c0-1.6,0.8-4.4,6.7-12.1c3.8-5,9.2-11.2,15.1-17.6c10.5-11.2,25-25.2,34.5-31 c7.9-4.8,17.5-7.1,29.2-7.1c4.4,0,8.5,0.3,12.1,0.6c2.7,0.2,5.1,0.4,7,0.4c4.2,0,9.9-1.5,9.9-14.8c0-3.1-0.7-7.1-6.2-10.2 c-6.4-3.6-17.9-5.5-34.2-5.5c-8.3,0-15.4,1.6-20.6,4.7c-5,3-7.9,7.2-8.4,12.3c-0.1,1.1-0.2,2.1-0.3,3.1 c-0.6,6.4-0.9,10.6-4.5,16.1c-3.2,4.9-8.8,10.8-22.2,23.5c-22.1,20.8-33.4,30.4-37.2,33.6c2.5,4.1,10.1,16.2,27.2,40.9 c9,13,14.5,23.6,19,32.1C372.5,343.9,376.2,351,384,353.9z"/></g><g><path fill="#FFF" d="M443.9,198.4c-7.1,0-19.6-2.3-32.4,0.2l0,0c0.9,4.3,4.8,17.6,8.1,20.3s18.6,2.7,22.5,0 s4.8-20.8,4.8-20.8l0,0C445.9,198.3,444.9,198.4,443.9,198.4z"/></g><g><path fill="#CCC" d="M434,176.4c0,0,0,0.1,0.1,0.2c0,0,0,0,0,0.1c0,0,0,0,0,0.1c0,0,0,0.1,0.1,0.1c0,0,0,0,0,0.1 c0,0,0,0.1,0,0.1c0,0.1,0.1,0.1,0.1,0.2c0.1,0.2,0.3,0.5,0.6,0.7c0.3,0.2,0.6,0.5,0.9,0.7c0.7,0.5,1.7,0.9,2.7,1.4 c1,0.5,2.2,0.9,3.3,1.4c0.6,0.2,1.1,0.4,1.7,0.6l0,0l0,0c0,0,0,0,0,0l0,0l0.1,0l0.1,0l0.2,0.1c0.2,0.1,0.3,0.1,0.4,0.1 c0.1,0,0.1,0,0.2,0c0.1,0,0.1,0,0.2,0c0.1,0,0.3,0.1,0.4,0.1c0.5,0.1,1,0.1,1.4,0.1c0.4,0,0.8-0.1,1.2-0.2 c0.4-0.1,0.7-0.3,1-0.5c0.1,0,0.1-0.1,0.2-0.1c0.1-0.1,0.1-0.1,0.2-0.2c0.1-0.1,0.1-0.1,0.2-0.2c0-0.1,0.1-0.1,0.1-0.2 c0-0.1,0.1-0.1,0.1-0.1c0,0,0.1-0.1,0.1-0.1c0.1-0.1,0.1-0.2,0.2-0.2c0.1-0.1,0.2-0.2,0.2-0.2s0,0.1,0,0.3c0,0.2,0,0.4,0,0.7 c0,0.1,0,0.2,0,0.3c0,0.1,0,0.2-0.1,0.3c0,0.1-0.1,0.2-0.1,0.3c0,0.1-0.1,0.2-0.1,0.3c-0.2,0.4-0.5,0.9-1,1.3 c-0.5,0.4-1,0.8-1.7,1c-0.7,0.2-1.4,0.4-2.1,0.4c-0.2,0-0.4,0-0.5,0c-0.1,0-0.2,0-0.3,0c-0.1,0-0.2,0-0.3,0 c-0.2,0-0.4,0-0.5-0.1l-0.2,0l-0.1,0l-0.1,0l0,0l-0.1,0l0,0c-0.7-0.2-1.4-0.4-2-0.6c-1.3-0.5-2.5-1.2-3.6-1.9 c-1.1-0.8-2-1.7-2.6-2.6c-0.3-0.5-0.5-0.9-0.7-1.4c-0.1-0.5-0.2-0.9-0.1-1.2c0-0.3,0.1-0.6,0.2-0.7 C434,176.4,434,176.4,434,176.4z"/></g><g><path fill="#FFF" d="M303.2,187.6c11.2-6.3,20-6.7,25.4-9c5.4-2.2,7-4.8,11.4-6.3c-5.4,0-9.3-9.6-22.9-3.8 C303.6,174.4,308.8,180.9,303.2,187.6z"/></g><path fill="#CCC" d="M330.4,170.6c0,0-2.2,3.7-10,6c-8.7,2.6-9.1-1-9.1-1l-6.1,6.5c0,0.1-0.1-2.1-0.1-2.1h4.2 c8.3-2,14.9-1.8,19.2-3.7c0.7-0.3,1.3,0.6,1.9,0.3l4.5-2.2c0.8-0.6,1.6-0.8,2.6-1.3l0,0.1L330.4,170.6z"/><path fill="#59504E" d="M292.1,196.8c17-5.6,11.4,1.1,29.5-5.2c18.1-6.3,7.9-10.5,34.4-22c-18.4,3.8-31.4,10.3-31.4,10.3 l-21.4,7.7L292.1,196.8z"/><g><path fill="#333" d="M292.1,196.8l9.1-10.9c1.7-2,2.2-3.9,2.7-6.2c1.1-4.4,2.4-9.4,12.2-13.6c3.3-1.4,6.2-2.1,9-2.1 c5,0,8.5,2.2,11,3.9c1.5,1,2.8,1.8,3.8,1.8l16-0.1l-15.1,5.2c-1.9,0.7-3.2,1.5-4.8,2.6c-1.7,1.1-3.6,2.4-6.4,3.6 c-2,0.8-4.3,1.4-6.9,2.1c-4.9,1.2-11,2.8-18.2,6.8L292.1,196.8z M325.2,169.3c-2.1,0-4.4,0.5-7,1.7c-7.4,3.2-8.2,6.3-9.2,10.1 c-0.1,0.3-0.2,0.6-0.2,1c4.8-2,9-3.1,12.6-4c2.4-0.6,4.5-1.1,6.2-1.8c2.4-1,4-2.1,5.5-3.1c0.2-0.2,0.5-0.3,0.7-0.5 c-0.2-0.1-0.3-0.2-0.5-0.3C331,170.8,328.6,169.3,325.2,169.3z"/></g><path fill="#CCC" d="M442,218.9c1.5-1.1,2.6-4.5,3.3-8.2c-1.1-1.2-2-1.7-2.1-0.8c-0.4,2.6-3.8,3.8-11.3,3.8 c-10.9,0-14.5-3.3-16-7.6l-1,4c1.4,4,3.1,7.6,4.7,8.9C422.8,221.6,438.1,221.6,442,218.9z"/><g><path fill="#333" d="M430.5,223.2c-2.8,0-9.6-0.2-12.4-2.5c-0.7-0.5-2.6-2.2-5.6-10.5c-1.5-4.2-2.7-8.7-3.2-11l-0.5-2.2 l2.2-0.4c4.2-0.8,8.7-1.2,13.7-1.2c4.4,0,8.5,0.3,12.1,0.6c2.7,0.2,5.1,0.4,7,0.4c0.9,0,1.7-0.1,2.5-0.2l2.8-0.6l-0.1,2.9 c0,0.2-0.2,4.7-1,9.6c-1.4,9.6-3.4,12-4.8,12.9C440,223,432.7,223.2,430.5,223.2z M414.2,200.4c0.6,2.2,1.4,5.2,2.5,8.2 c1.9,5.3,3.4,7.9,4.2,8.6c0.7,0.6,3.9,1.5,9.6,1.5c5.1,0,9-0.8,10.2-1.6c0.1,0,1.6-1.2,2.9-9.9c0.4-2.5,0.6-4.8,0.7-6.6 c-0.2,0-0.3,0-0.5,0c-2.1,0-4.5-0.2-7.3-0.4c-3.5-0.3-7.5-0.6-11.8-0.6C420.9,199.7,417.4,199.9,414.2,200.4z"/></g><path fill="#CCC" d="M426.8,305.8c0.8,1.3-3.2,3.3-16.2,7.8c-13,4.5-17.8,4.9-16.6-1.2l-3.7,7.1c-0.5,2.8-0.9,5-0.9,5.1 c0,0,0.1,0,0.1,0l1,0.1c12,1.2,33.6-11.8,40-13.8c0.6-0.2,1-0.2,1.4-0.2l0,0c0,0-1.6-4-3.6-7.2 C427.2,304.8,426.7,305.6,426.8,305.8z"/><g><path fill="#333" d="M392.1,327.2c-0.7,0-1.3,0-1.9-0.1l-0.1,0l-1.1-0.2l-2.2-0.4l0.4-2.2c0.1-0.5,2-11.7,3.3-15.9 c0.5-1.6,2.1-2.9,5.4-4.4c2.3-1,5.4-2,9-3c6.9-1.9,14.4-3.2,18.2-3.2c1.5,0,2.5,0.2,3.2,0.6c3.5,2.1,6.9,10.1,7.5,11.7l0.7,1.7 l-2.3,1.5l-0.8-0.1c0,0-0.2,0-0.4,0.1c-1.6,0.5-4.6,1.9-8.1,3.6C413.8,321.2,401.2,327.2,392.1,327.2z M392,323 C392,323,392.1,323,392,323c8.2,0,20.7-6.1,29-10.1c3.1-1.5,5.7-2.8,7.6-3.5c-1.5-3.1-3.3-6.2-4.5-7c-0.1,0-0.4-0.1-1-0.1 c-3.2,0-9.9,1.1-16.2,2.8c-8.6,2.3-11.7,4.3-12.2,4.9C393.9,312.9,392.7,318,392,323z"/></g><path fill="#CCC" d="M417.3,178.8c0,0,0,0.1,0.1,0.3c0,0.2,0.1,0.5,0,0.9c-0.1,0.4-0.3,0.9-0.6,1.4c-0.3,0.5-0.7,1-1.3,1.4 c-0.5,0.5-1.1,0.9-1.8,1.2c-0.7,0.4-1.4,0.7-2.2,1c-1.5,0.6-3.2,1-4.9,1.2c-0.9,0.1-1.7,0-2.6,0l0-0.2h0l0,0.2l-0.1,0.1l-0.1,0 l-0.2,0l-0.2,0c-0.2,0-0.5,0-0.7-0.1c-0.4-0.1-0.9-0.2-1.3-0.3c-0.9-0.2-1.7-0.6-2.4-1.1c-0.7-0.5-1.3-1-1.7-1.7 c-0.4-0.6-0.7-1.3-0.8-1.8c-0.1-0.6-0.1-1.1-0.1-1.4c0-0.4,0.1-0.7,0.2-0.9c0.1-0.2,0.1-0.3,0.1-0.3s0,0.1,0.1,0.3 c0.1,0.2,0.2,0.5,0.3,0.8c0.2,0.3,0.4,0.7,0.6,1c0.1,0.2,0.3,0.3,0.5,0.5c0.1,0.1,0.2,0.2,0.3,0.2c0.1,0.1,0.2,0.1,0.3,0.2 c0.4,0.3,0.9,0.5,1.4,0.7c0.5,0.2,1.1,0.3,1.8,0.3c0.3,0,0.6,0,1,0.1c0.2,0,0.3,0,0.5,0l0.1,0l0.1,0l0.1,0.1l0.1,0.1h0 c0,0,0,0,0,0h0l0-0.1c0.7,0,1.5-0.2,2.2-0.2c1.5-0.2,3-0.4,4.5-0.7c1.4-0.3,2.7-0.6,3.7-0.9c0.5-0.2,1-0.4,1.4-0.6 c0.4-0.2,0.7-0.5,0.9-0.7c0.1-0.1,0.1-0.1,0.1-0.2c0,0,0-0.1,0.1-0.1c0,0,0-0.1,0.1-0.1c0-0.1,0.1-0.1,0.1-0.2c0,0,0,0,0-0.1 c0,0,0-0.1,0-0.1C417.3,178.9,417.3,178.8,417.3,178.8z"/><g><path fill="#333" d="M434,175.6c-0.8,3.1,6,6.4,9.1,7.2c3.1,0.8,6,0.1,6.8-3c0.8-3.1-1.1-6.3-4.2-7.1 C442.7,171.8,434.8,172.5,434,175.6z"/></g><g><path fill="#333" d="M417.3,177.9c0,4-9.3,5.8-13.3,5.8c-4,0-7.3-1.8-7.3-5.8s3.3-7.3,7.3-7.3 C408,170.6,417.3,173.8,417.3,177.9z"/></g></g><g><path fill="#333" d="M218.2,456.8c-8,0-14.6-6.4-14.6-14.5c0-8,6.6-14.6,14.6-14.6c8,0,14.5,6.6,14.5,14.6 C232.7,450.4,226.3,456.8,218.2,456.8z M205.7,466.6h25.1V541h-25.1V466.6z"/><path fill="#333" d="M356.7,489c0,30.4-24.6,54.9-54.9,54.9c-30.5,0-55.1-24.6-55.1-54.9c0-30.4,24.6-55.1,55.1-55.1 C332.2,433.9,356.7,458.6,356.7,489z M332.6,489c0-17-13.8-31-30.8-31c-17.2,0-31,14-31,31s13.8,30.8,31,30.8 C318.8,519.8,332.6,506,332.6,489z"/><path fill="#59504E" d="M366.5,543.9c-4.5,0-8.3-3.8-8.3-8.3c0-4.6,3.8-8.4,8.3-8.4c4.6,0,8.4,3.8,8.4,8.4 C374.9,540.1,371.1,543.9,366.5,543.9z"/><path fill="#59504E" d="M406,495v45.3c0,3.9-0.7,8.9-2.3,12.5c-3.5,8.8-11.8,15.3-21.1,17.1v-14.9c5.3-2.1,9.1-6.7,9.1-14.7V495 H406z"/><path fill="#59504E" d="M456.4,528.7c0,2.1-0.6,4.2-1.8,6.1c-1.1,1.9-2.7,3.5-4.7,4.9c-1.9,1.5-4.3,2.6-6.8,3.3 c-2.6,0.8-5.4,1.3-8.2,1.3c-3.4,0-6.7-0.6-9.5-1.7c-2.6-0.9-5-2.2-6.9-4.1c-4.5-4.6-5.4-8.2-5.4-11.4h13.5 c0,4.4,4.2,6.5,8.2,6.5c2.7,0,8-1.4,8-5c0-4.5-7.6-5.7-11.7-6.2c-3.9-0.5-8.1-1.5-11.6-3.7c-3.3-1.9-5.7-5.4-5.7-9.6 c0-8.7,9.2-15.8,20.4-15.8c6.3,0,11.5,1.5,15.3,4.3c4.7,3.5,5.2,7.5,5.2,10h-12.3c0-3.2-5.7-4.1-8.1-4.1c-2.9,0-7,0.7-7,4.4 c0,2.5,3.9,3.2,8.8,3.9c4.4,0.6,9.3,1.5,13.3,3.8c2.2,1.3,3.8,2.9,5,4.8c0.6,1.1,1.1,2.3,1.4,3.6 C456.2,525.5,456.4,527,456.4,528.7z"/></g></g><rect width="660" height="240" y="660" fill="#333"/><g><path fill="#CCC" d="M307.2,730.7c-4.8-2.8-12.5-4.1-23.5-4.1c-10.3,0-19.4-0.8-27-2.2c0.7-2.1,1.2-4.2,1.6-6.3 c0.7-4.3,0.5-8.3,0.2-11.7l-0.5-6.4c-0.1-0.9-0.6-1.7-1.4-2.2c-0.4-0.3-0.9-0.4-1.4-0.4c-0.4,0-0.8,0.1-1.2,0.3l-5.8,2.7 c-3.7,1.7-7.4,4.1-11,7.2c-0.1-0.2-0.2-0.3-0.4-0.5c-0.5-0.6-1.3-0.9-2-0.9c-0.4,0-0.7,0.1-1,0.2l-5.7,2.3c0,0-0.1,0-0.1,0 c-0.6,0.3-1.3,0.6-1.9,1l-1.3-4.9c-0.3-1.2-1.4-1.9-2.7-1.9c0,0,0,0,0,0c-1.3,0-2.4,0.7-2.7,2l-1.6,6.6l-0.4-1.2 c-0.4-1.1-1.4-1.8-2.6-1.8c-0.1,0-0.2,0-0.2,0c-1.2,0.1-2.3,1-2.5,2.3l-1.5,7.9c-0.6,3.5-1.5,6.4-2.4,8.7 c-3.4-6.2-7.2-11.8-11.4-16.8c-5.2-6.2-11-11.5-17.2-15.8c-10.8-7.4-19.3-9.1-19.6-9.2l-3-0.6c-0.2,0-0.4-0.1-0.5-0.1 c-0.7,0-1.4,0.3-1.9,0.7c-0.6,0.6-1,1.5-0.9,2.3l0.3,3c1.3,12.2,4,23.2,7.8,32.9c3.1,7.8,7.1,14.8,11.7,20.6 c3.8,4.7,7.4,8,10.3,10.2c-4.9,5.5-9.3,11.5-12.9,17.8c-4.4,7.7-7.8,15.9-9.9,24.2c-2.1,8.2-3,16.3-2.7,24.1 c0.3,8,1.9,15.4,4.7,22.2c2,4.7,4.5,9.1,7.6,12.9c3.2,4,7,7.4,11.2,10.2c9,5.9,19.8,8.9,32.3,8.9c8.1,0,19.7-0.4,29.6-2.4 c4.8-1,8.7-2.3,11.6-3.8c4.1-2.2,6.5-5,7.4-8.5c0.7-3.1,2.8-6.2,4.2-8c2.3,0.9,5.5,2.1,8,3.2l2.5,1.3c0.4,0.2,0.9,0.3,1.3,0.3 c0.5,0,0.6-0.1,1.1-0.4c0.8-0.5,1-1.4,1-2.4v-2.3c2-1.5,3.8-4.3,5.6-6.6c0.7-0.9,1.7-1.9,2.5-2.9c1.3-1.5,2.7-3.1,3.8-4.6 c2.1-3,4.1-6.5,5.4-9.6c2.2-5.1,2.6-8.3,1.3-10.8c-0.6-1.1-1.5-2-2.6-2.5c-1.4-2.8-2.9-4.6-4.3-5.5c-1.1-0.7-2.4-0.8-3.4-0.8 c-0.3,0-0.6,0-1,0c-0.2,0-0.3,0-0.5,0c0,0-0.1,0-0.1,0c-0.1,0-1,0-2.3-0.5c-2.7-0.9-4.8-2.8-6-4.2c-0.8-0.9-1.5-1.7-2.2-2.5 c-2.1-2.4-4-4.4-5.2-6c-0.3-0.4-0.6-0.8-0.8-1.1c1.1-1.8,3.7-5.7,7.7-10.8c4.8-6.2,9.4-11.2,12.6-14.1c0.9,0.1,1.7,0.1,2.3,0.1 c2.4,0,6.7-0.3,9.2-1.9c2-1.4,3.2-4.3,4-9.6c0.1-0.7,0.2-1.5,0.3-2.3c2-1,3.5-2.5,4.7-4.5c1.4-2.5,2-5.5,2-9.4 C314.1,737.2,311.8,733.3,307.2,730.7z"/><g><g><path fill="#333" d="M251.2,706.9c0.5,7,0.3,13-3.7,20.3c-6.8-2.1-10.8-4.5-13.4-6.2C234.1,721,240.8,711.8,251.2,706.9 M255.2,700.2l-5.8,2.7c-10.4,4.8-17.3,13.4-18.7,15.2l-3.7,3.7l4.7,3c3.3,2.1,7.6,4.6,14.5,6.7l3.5,1.1l1.8-3.2 c2.1-3.9,3.5-7.7,4.1-11.7c0.6-4,0.5-7.8,0.2-11L255.2,700.2L255.2,700.2z"/></g><g><path fill="#665F5D" d="M247.5,727.2c4-7.3,4.3-13.3,3.7-20.3c-10.4,4.8-17.1,14.1-17.1,14.1 C236.7,722.7,240.7,725.1,247.5,727.2z"/></g><g><path fill="#59504E" d="M239,723.7c2.2,1.1,5,2.2,8.5,3.3c3.3-6,4.1-11,3.9-16.7h0C251.4,710.3,243.8,713.4,239,723.7z"/></g><g><path fill="#333" d="M248.1,728.8l-1-0.3c-3.2-1-6-2.1-8.7-3.4l-1.2-0.6l0.6-1.2c5-10.7,12.8-13.8,13.1-13.9l0.5-0.2 l1.3,0.5l0,0.9c0.2,6.6-1.1,11.8-4.1,17.3L248.1,728.8z M240.8,723.3c1.9,0.9,3.9,1.7,6,2.4c1.2-2.4,2.1-4.8,2.6-7.2 c0.4-1.8,0.6-3.6,0.7-5.6c-0.7,0.4-1.4,1-2.3,1.7C245.8,716.1,243.1,718.9,240.8,723.3z"/></g><g><path fill="#665F5D" d="M159.1,690.6c0,0,30.8,6,49.6,49.1c10.2-11,17.7-20.7,21.4-20.7s10.4,12.6,53.6,12.6 c22.2,0,25.4,5.6,25.4,10.7s-1.3,10.2-7.2,10.2c-5.9,0-17.9-2.7-28.1,3.5c-10.2,6.2-32.9,30.8-32.9,35.1 c0,4.3,20.6,32.7,26.8,36.2c6.2,3.5,22-6.2,26.2-7.5s-0.5,9.4-4.8,15.5s-11.2,13.9-11.2,15.8c-4.8-2.1-12.1-4.6-12.1-4.6 s-6,5.9-7.6,12.7c-2,8.3-24,10.9-43.8,10.9c-58.9,0-67-71.8-22.5-116.2C191.8,753.8,164.7,742,159.1,690.6z"/></g><path fill="#59504E" d="M191.2,863.1c-8.3-7.6-13.8-12.6-19.5-29.6c-4.1-12.3-2.4-28.1,1.6-39.1c7.2-19.6,17-29.5,22.8-35.4 c7.1-7.4,4.8-9.4,6.3-15.2l-17.3,5.6c3.9,3.3,6.7,4.5,6.7,4.5c-38.5,38.5-37.6,97.4,1.5,112.6 C193.1,865.3,192.4,864.2,191.2,863.1z"/><path fill="#59504E" d="M168.4,703.8c0,0-0.7,16.5,4.3,26.4c5,9.9,16.6,22.2,16.6,22.2l6.3,0.6c0,0,6-5.1,6.7-9.4 C202.9,740.1,199,727.5,168.4,703.8z"/><g><path fill="#333" d="M272.5,819c0,0,0,0,0.1-0.1l-2.6-0.7c0.3-0.9,1.1-1.7,2.8-2.4c1.2-0.6,2.8-1.1,4.7-1.7 c3.5-1,7.7-1.9,10.4-2.1l0.1,1.3l1.3,0.2l-0.2,1.1l-1.1,0.1c-2.5,0.2-6.2,1-9.4,1.9C273.3,817.9,272.5,819,272.5,819z"/></g><g><path fill="#333" d="M208,743.7l-1.4-3.1c-0.2-0.5-0.4-1-0.7-1.6l-0.4-0.9l0.6-1.3l0.2-0.2c0.1-0.1,1.3-1.4,2.7-4.2 c1.4-2.6,3.2-6.9,4.4-13.1l1.5-7.9l2.8,7.6c0.1,0.3,0.2,0.5,0.3,0.8c0.8-1.4,1.6-3.3,2-5.4l2.1-9l2.2,8.9c0,0.1,0,0.2,0.1,0.2 c1.3-1.2,2.9-2.5,4.7-3.3l5.7-2.2l-2.8,6c0,0,0,0,0,0l5.7,0.2l-4.6,3.3c0,0-0.1,0-0.1,0c0,0,0.1-0.2,0.1-0.4 c0-0.1,0-0.2-0.2-0.3l-2.3,3.8c-0.4-0.2-0.6-0.3-0.7-0.3c-0.2,0-1.4,0.3-4.4,3.2c-2.4,2.3-5.4,5.6-8.8,9.5 c-2.1,2.3-4.2,4.7-6.5,7.2L208,743.7z"/></g><path fill="#59504E" d="M255.4,841.8c-2.6-3.9-8.4-16.8-15.8-19.2c-7.4-2.4-8.1-3.1-13.3-4.6c-5.2-1.5-19-8.9-19-8.9l-10.7-11.7 l-3.5-4.5c-0.2,9.5,0.1,17.3,21.2,25.6c19.7,7.8,23.1,5.8,26.5,15.3l0.5-1.2c-0.2-0.1,6.3,3.6,6.9,10.8l1.7-0.8 c0,0,4.1,4.5,1.6,10.6s-4.8,11.4-10.2,12.6c-0.8,0.2,5.2,0.4,6.2,0.8c5.7-1.7,9.7-4.1,10.5-7.4c1.2-5.1,2.9-10.7,4.6-12.7 C262.7,846.5,259.1,847.2,255.4,841.8z"/><g><path fill="#333" d="M194.7,776.7c0,0,0,0.2,0.1,0.7c0,0.2,0.1,0.5,0.1,0.8c0.1,0.3,0.1,0.7,0.2,1.1 c0.1,0.8,0.2,1.8,0.4,2.9c0.1,1.1,0.3,2.4,0.4,3.7c0.1,1.4,0.3,2.8,0.4,4.3c0.2,1.5,0.4,3.1,0.8,4.6c0.2,0.8,0.4,1.5,0.7,2.2 c0.3,0.7,0.6,1.4,1,2l0.2,0.2l0.2,0.2c0.1,0.1,0.1,0.2,0.2,0.2l0.2,0.2c0.2,0.3,0.5,0.6,0.8,0.9c0.5,0.6,1.1,1.1,1.8,1.7 c0.6,0.5,1.3,1,2,1.5c0.7,0.5,1.4,1,2.1,1.5c1.5,0.9,2.9,1.8,4.4,2.7c1.5,0.9,2.9,1.7,4.2,2.5c1.3,0.8,2.6,1.6,3.8,2.3 c1.2,0.7,2.2,1.4,3.2,2c0.9,0.6,1.8,1.1,2.4,1.6c0.3,0.2,0.6,0.4,0.9,0.6c0.3,0.2,0.5,0.3,0.7,0.5c0.4,0.3,0.5,0.4,0.5,0.4 s-0.2-0.1-0.6-0.2c-0.2-0.1-0.5-0.1-0.8-0.2c-0.3-0.1-0.7-0.2-1-0.3c-0.8-0.2-1.7-0.5-2.8-0.9c-1.1-0.3-2.3-0.8-3.6-1.2 c-2.6-0.9-5.6-2.1-8.7-3.6c-1.6-0.7-3.2-1.6-4.8-2.5c-0.4-0.2-0.8-0.5-1.2-0.7c-0.2-0.1-0.4-0.3-0.6-0.4 c-0.2-0.1-0.4-0.3-0.6-0.4c-0.8-0.5-1.6-1.1-2.3-1.8c-0.8-0.6-1.5-1.3-2.2-2.1c-0.2-0.2-0.3-0.4-0.5-0.6 c-0.2-0.2-0.3-0.4-0.5-0.6l-0.2-0.3c-0.1-0.1-0.1-0.2-0.2-0.3c-0.1-0.1-0.1-0.2-0.2-0.3l-0.2-0.3c-0.1-0.2-0.2-0.5-0.4-0.7 c-0.1-0.2-0.2-0.5-0.3-0.7c-0.1-0.2-0.2-0.5-0.3-0.7c-0.1-0.2-0.2-0.5-0.3-0.7c-0.3-1-0.5-1.9-0.7-2.8 c-0.1-0.9-0.2-1.8-0.2-2.7c0-0.1,0-0.2,0-0.3c0-0.1,0-0.2,0-0.3c0-0.2,0-0.4,0-0.6c0-0.2,0-0.4,0-0.6c0-0.2,0-0.4,0-0.6 c0-1.6,0.2-3.1,0.3-4.5c0.1-1.4,0.3-2.6,0.4-3.7c0.2-1.1,0.3-2.1,0.4-2.9c0-0.2,0.1-0.4,0.1-0.6c0-0.2,0.1-0.3,0.1-0.5 c0.1-0.3,0.1-0.6,0.1-0.8C194.6,776.9,194.7,776.7,194.7,776.7z"/></g><g><path fill="#333" d="M253.4,757c0,0,0-0.1,0.1-0.2c0-0.1,0.1-0.2,0.2-0.4c0.1-0.2,0.2-0.4,0.3-0.6c0.1-0.2,0.3-0.5,0.4-0.8 c0.2-0.3,0.3-0.6,0.5-0.8c0.2-0.3,0.4-0.6,0.6-0.9c0.1-0.1,0.1-0.2,0.2-0.2c0.1-0.1,0.1-0.2,0.2-0.2c0.1-0.2,0.2-0.3,0.3-0.5 c0.1-0.2,0.2-0.3,0.3-0.5c0.1-0.2,0.2-0.3,0.3-0.5l0.2-0.2c0.1-0.1,0.1-0.2,0.1-0.2c0.1-0.2,0.2-0.3,0.3-0.5 c0-0.1,0.1-0.2,0.1-0.2c0-0.1,0.1-0.2,0.1-0.2c0.1-0.2,0.2-0.3,0.3-0.5c0.1-0.1,0.2-0.3,0.2-0.4c0-0.1,0.1-0.1,0.1-0.2 c0-0.1,0.1-0.1,0.1-0.2c0.1-0.1,0.1-0.3,0.2-0.4c0.1-0.1,0.1-0.3,0.2-0.4c0.1-0.1,0.1-0.3,0.2-0.4c0.1-0.1,0.1-0.2,0.2-0.4 c0.1-0.1,0.1-0.2,0.2-0.3c0-0.1,0.1-0.2,0.1-0.3c0.1-0.2,0.2-0.3,0.2-0.4c0.1-0.1,0.1-0.1,0.1-0.1s0,0.1,0.1,0.2 c0,0.1,0.1,0.2,0.2,0.4c0,0.1,0.1,0.2,0.1,0.3c0,0.1,0.1,0.2,0.1,0.4c0,0.1,0.1,0.3,0.1,0.4c0,0.1,0,0.2,0,0.2 c0,0.1,0,0.2,0,0.2c0,0.2,0,0.3,0,0.5c0,0.2,0,0.4,0,0.6c0,0.2,0,0.4-0.1,0.6c0,0.1,0,0.2-0.1,0.3c0,0.1,0,0.1,0,0.2 c0,0.1,0,0.1,0,0.2c-0.1,0.2-0.1,0.4-0.2,0.6c0,0.1-0.1,0.2-0.1,0.3c0,0.1-0.1,0.2-0.1,0.3c0,0.1-0.1,0.2-0.1,0.3 c-0.1,0.1-0.1,0.2-0.2,0.3c-0.1,0.1-0.1,0.2-0.2,0.3l-0.2,0.3l-0.2,0.3c-0.1,0.1-0.1,0.2-0.2,0.3c-0.1,0.1-0.1,0.2-0.2,0.3 c-0.1,0.1-0.1,0.2-0.2,0.3c-0.1,0.2-0.3,0.3-0.4,0.5c-0.1,0.2-0.3,0.3-0.5,0.4c-0.3,0.3-0.6,0.5-0.9,0.7 c-0.3,0.2-0.6,0.4-0.9,0.6c-0.3,0.2-0.6,0.3-0.8,0.4c-0.2,0.1-0.5,0.2-0.6,0.3c-0.2,0.1-0.3,0.1-0.4,0.1 C253.5,757,253.4,757,253.4,757z"/></g><g><path fill="#333" d="M177.9,734.7c-0.2-0.3-0.3-0.5-0.5-0.8l-0.3-0.4l-0.2-0.4c-0.2-0.3-0.3-0.5-0.5-0.8l-0.5-0.8 c-0.1-0.1-0.2-0.3-0.2-0.4l-0.2-0.4c-0.1-0.3-0.3-0.6-0.4-0.8c-0.3-0.6-0.6-1.1-0.8-1.7c-0.3-0.6-0.5-1.2-0.8-1.8 c-0.1-0.3-0.2-0.6-0.4-0.9c-0.1-0.3-0.2-0.6-0.3-0.9l-0.3-0.9l-0.3-0.9c-0.1-0.3-0.2-0.6-0.3-0.9c-0.1-0.3-0.2-0.6-0.3-0.9 l-0.3-0.9l-0.3-0.9c-0.1-0.3-0.2-0.6-0.2-0.9c-0.1-0.3-0.2-0.6-0.2-0.9c-0.2-0.6-0.3-1.2-0.4-1.9l-0.2-0.9l-0.2-0.9 c-0.1-0.3-0.1-0.6-0.2-0.9l-0.2-0.9c-0.1-0.6-0.2-1.3-0.3-1.9c-0.1-0.6-0.2-1.3-0.2-1.9c0-0.3-0.1-0.6-0.1-1l0-0.5 c0-0.2,0-0.3,0-0.5l-0.1-2l1.9,0.8c1,0.4,2,1,3,1.5c1,0.6,1.9,1.1,2.8,1.8c0.9,0.6,1.8,1.3,2.7,1.9c0.9,0.7,1.7,1.4,2.5,2.1 c0.8,0.7,1.6,1.4,2.4,2.2c0.8,0.7,1.6,1.5,2.3,2.3c0.4,0.4,0.8,0.8,1.1,1.2l0.6,0.6l0.6,0.6c0.4,0.4,0.7,0.8,1.1,1.2 c0.4,0.4,0.7,0.8,1.1,1.2c0.7,0.8,1.4,1.7,2.1,2.5c0.7,0.8,1.3,1.7,2,2.6c0.6,0.9,1.3,1.8,1.9,2.6c0.6,0.9,1.2,1.8,1.8,2.7 c0.6,0.9,1.1,1.9,1.6,2.8l0.4,0.7l0.4,0.7c0.2,0.5,0.5,1,0.7,1.5c0.4,1,0.8,2,1.1,3.1c0.1,0.5,0.2,1.1,0.3,1.6 c0,0.5,0,1.1-0.2,1.6c0-0.3,0.1-0.5,0-0.8c0-0.1,0-0.1,0-0.2l0-0.2c0-0.1,0-0.3-0.1-0.4c-0.1-0.5-0.3-1-0.5-1.5l-0.2-0.4 c-0.1-0.1-0.1-0.2-0.2-0.4l-0.1-0.2l-0.1-0.2l-0.2-0.4c-0.1-0.2-0.2-0.5-0.4-0.7l-0.2-0.3l-0.2-0.3c-0.3-0.5-0.5-0.9-0.8-1.4 l-0.4-0.7l-0.4-0.7c-0.6-0.9-1.2-1.7-1.8-2.6c-0.6-0.9-1.3-1.7-1.9-2.5c-0.7-0.8-1.3-1.7-2-2.5c-0.7-0.8-1.4-1.6-2.1-2.4 c-0.7-0.8-1.4-1.6-2.1-2.4c-0.4-0.4-0.7-0.8-1.1-1.2c-0.4-0.4-0.7-0.8-1.1-1.1c-0.7-0.8-1.5-1.5-2.2-2.2 c-0.8-0.7-1.5-1.5-2.3-2.2c-0.8-0.7-1.6-1.4-2.4-2.1c-0.8-0.7-1.6-1.3-2.4-2c-0.8-0.6-1.7-1.3-2.5-1.9 c-0.9-0.6-1.7-1.2-2.6-1.7c-0.9-0.5-0.7,0.4-0.6,1c0.1,0.6,0.1,1.2,0.2,1.9l0.1,0.9l0.1,0.9l0.1,0.9l0.1,0.9 c0,0.3,0.1,0.6,0.2,0.9c0.1,0.3,0.1,0.6,0.2,0.9c0.1,0.3,0.1,0.6,0.2,0.9c0.1,0.3,0.1,0.6,0.2,0.9l0.2,0.9l0.2,0.9 c0.1,0.3,0.1,0.6,0.2,0.9c0.1,0.3,0.1,0.6,0.2,0.9l0.2,0.9l0.2,0.9c0,0.2,0.1,0.3,0.1,0.5l0.1,0.4c0.1,0.3,0.2,0.6,0.3,0.9 l0.3,0.9c0,0.2,0.1,0.3,0.1,0.4l0.1,0.4c0.2,0.6,0.4,1.2,0.6,1.8c0.1,0.3,0.2,0.6,0.3,0.9l0.2,0.4c0.1,0.1,0.1,0.3,0.2,0.4 l0.3,0.9l0.4,0.9l0.2,0.4l0.2,0.4C177.6,734.1,177.7,734.4,177.9,734.7z"/></g><g><path fill="#333" d="M214.3,872.3c-11.9,0-22.3-2.8-30.8-8.4c-4-2.6-7.5-5.8-10.6-9.6c-2.9-3.6-5.3-7.7-7.2-12.2 c-2.7-6.4-4.2-13.6-4.5-21.2c-0.3-7.6,0.6-15.4,2.6-23.3c2.1-8.1,5.3-16,9.7-23.5c4-7,9-13.7,14.7-19.7 c-2.8-1.8-7.4-5.3-12.4-11.5c-4.5-5.6-8.3-12.3-11.3-19.9c-3.8-9.4-6.3-20.2-7.6-32.2l-0.3-3l3,0.6c0.3,0.1,8.3,1.7,18.6,8.7 c6,4.1,11.6,9.2,16.6,15.3c5.6,6.7,10.5,14.5,14.6,23.3c1.5-1.6,2.9-3.2,4.2-4.7c8.6-9.6,12.8-14.2,16.6-14.2 c1.5,0,2.8,0.8,4.6,2c2.6,1.7,6.6,4.3,14,6.5c9.1,2.7,20.8,4.1,35,4.1c10.5,0,17.7,1.2,22.2,3.7c3.7,2.1,5.5,5.1,5.5,9.2 c0,3.4-0.6,6.1-1.7,8.1c-1.6,2.8-4.3,4.3-7.8,4.3c-1.3,0-2.7-0.1-4.4-0.2c-2.1-0.2-4.5-0.3-7-0.3c-6.4,0-11.3,1.2-15.6,3.7 c-4.4,2.6-11.8,9.3-19.4,17.4c-3.4,3.6-6.5,7.2-8.8,10.2c-3,3.9-3.6,5.3-3.7,5.7c0.1,0.4,0.6,1.9,3.3,6.2 c2,3.2,4.7,7.2,7.7,11.2c6.3,8.5,12.4,15.5,14.7,16.8c0.5,0.3,1.3,0.5,2.3,0.5c4.7,0,12-3.5,16.9-5.8c2.3-1.1,4.1-1.9,5.3-2.3 c0.5-0.1,0.9-0.2,1.3-0.2c1.2,0,2.3,0.6,2.8,1.7c0.6,1.1,1,3.1-1.4,8.4c-1.3,3-3.2,6.4-5.1,9.1c-1.6,2.4-4.1,4.9-6,7.3 c-2.1,2.6-4.8,6.2-5.8,7.4v3.3l-2.7-1.4c-3.4-1.5-8-3.2-10.3-4c-1.6,1.8-4.9,6.1-6,10.6c-0.6,2.6-2.6,4.9-5.9,6.7 c-2.7,1.4-6.3,2.6-10.9,3.6C233.7,871.9,222.2,872.3,214.3,872.3z M161.7,693.7c1.3,10.1,3.6,19.3,6.8,27.4 c2.8,7.1,6.4,13.5,10.5,18.7c7.1,9,13.5,11.9,13.6,11.9l3,1.3l-2.3,2.3c-6.3,6.3-11.7,13.3-16,20.8c-4.1,7.2-7.2,14.7-9.2,22.4 c-3.9,15-3.3,29.8,1.7,41.7c1.7,4.1,3.9,7.9,6.5,11.1c2.7,3.4,5.9,6.3,9.5,8.6c7.8,5.1,17.3,7.7,28.3,7.7 c7.7,0,18.9-0.4,28.1-2.3c4.1-0.8,7.4-1.9,9.7-3.1c2.2-1.2,3.4-2.4,3.8-3.7c1.7-7.3,8-13.5,8.3-13.8l1-1l1.3,0.4 c0.3,0.1,5.6,1.9,10.2,3.8c0.9-1.5,2.6-3.7,5.2-7c1.9-2.4,3.8-4.9,5.4-7.1c1.6-2.3,3.2-5.2,4.4-7.8c0.8-1.7,1.2-2.9,1.4-3.8 c-0.9,0.4-2,0.9-3.2,1.5c-5.6,2.6-13.2,6.3-18.8,6.3c-1.8,0-3.3-0.4-4.5-1c-4.6-2.6-13.7-14.7-16.4-18.4 c-3.1-4.2-5.9-8.3-7.9-11.6c-3.2-5.3-3.6-7.1-3.6-8.1c0-1.1,0.5-3,4.2-7.8c2.3-3,5.5-6.8,9.1-10.6c6.3-6.7,15-15.2,20.8-18.6 c4.9-3,10.7-4.4,17.9-4.4c2.7,0,5.1,0.2,7.3,0.4c1.6,0.1,3,0.2,4.1,0.2c1.5,0,5,0,5-7.9c0-2.3,0-8.5-23.2-8.5 c-14.5,0-26.7-1.4-36.2-4.3c-8-2.4-12.5-5.3-15.1-7c-0.9-0.6-1.9-1.2-2.2-1.3c-0.2,0-1.3,0.3-4.4,3.2c-2.4,2.3-5.4,5.6-8.8,9.5 c-2.1,2.3-4.2,4.7-6.5,7.3l-2.3,2.5l-1.4-3.1c-4.2-9.6-9.3-18.1-15.3-25.3c-4.8-5.7-10-10.6-15.7-14.4 C169.7,696.8,164.7,694.7,161.7,693.7z"/></g><g><g><path fill="#78191F" d="M282.5,752.6c0.2,0,0.5-0.1,0.7-0.1c-3.2,0.6-6.4,1.6-9.5,3.5c-10.2,6.2-32.9,30.8-32.9,35.1 s20.6,32.7,26.8,36.2c0.9,0.5,2.1,0.8,3.4,0.8c-0.4,0-0.7,0-1,0l-0.6-0.1c0,0,0,0-0.1,0c0-0.1,1.2-6.9,1.9-9.4 c0.6-2,11.5-4.8,16.8-5.3l0-0.1c0,0-5.9,0.4-11.6-6.1s-9.6-10.5-9.6-12.3s14.9-22.5,23.5-29c-1.4-0.2-2.5-0.5-3-1 C285.4,763.1,283.1,755.1,282.5,752.6z"/></g></g><g><path fill="#333" d="M287.9,814.4c-1.3,0-7-0.4-12.4-6.5c-0.8-0.9-1.5-1.7-2.2-2.5c-5.5-6.2-7.8-8.7-7.8-10.7 c0-0.4,0-1.1,2.7-5.1c1.6-2.5,3.8-5.5,6.1-8.4c2.5-3.2,8.2-10.4,13.2-14.8c-0.4-0.2-0.7-0.4-1-0.6l1.7-2.1 c0.1,0,0.6,0.4,2.3,0.7l3.2,0.5l-2.6,1.9c-3.5,2.6-8.7,8.3-14.4,15.6c-4.8,6.2-8.2,11.3-8.6,12.5c0.1,0.2,0.3,1,1.8,2.8 c1.3,1.6,3.1,3.7,5.3,6.1c0.7,0.8,1.5,1.6,2.2,2.5c1.5,1.7,4,3.9,7.2,5c2,0.7,3.3,0.6,3.3,0.6l0.2,2.7 C288.1,814.4,288,814.4,287.9,814.4z"/></g><g><path fill="#FFF" d="M290.7,813.3c-1.8-1.1-18.7,2.7-19.5,5.2c-0.7,2.5-1.9,9.3-1.9,9.4c0,0,0,0,0.1,0l0.6,0.1 c7.2,0.7,20-7,23.9-8.2c0.3-0.1,0.6-0.1,0.8-0.1l0,0C294.7,819.6,292.5,814.4,290.7,813.3z"/></g><g><path fill="#FFF" d="M289,835.2c4.3-6.2,9.1-16.9,4.8-15.5s-20.1,11-26.2,7.5c-6.2-3.5-26.8-31.9-26.8-36.2 s22.8-28.9,32.9-35.1c10.2-6.2,22.2-3.5,28.1-3.5c5.9,0,7.2-5.1,7.2-10.2s-3.2-10.7-25.4-10.7c-10.4,0-18,4.3-18.6,11.4 c-0.9,9.3,0.2,9.6-15.7,24.6c-16.6,15.6-23,20.7-23,20.7s3.7,6.4,16.9,25.5c13.2,19,13.9,29.6,22.5,32.7c0,0,7.2,2.4,12.1,4.6 C277.7,849.2,284.7,841.4,289,835.2z"/></g><path fill="#CCC" d="M273.7,756c10.2-6.2,22.2-3.5,28.1-3.5c4.6,0,6.4-3.1,7-6.8l-1.1-2.2c0,4.4-4.8,4.8-23.9,4.8 c-16.2,0-46.1,37.9-44.4,42.8c0.2-0.2,0.7-0.5,1.6-1C243.4,783.9,264.2,761.7,273.7,756z"/><path fill="#CCC" d="M292.6,826.2c-5.5,11.1-10.1,13.4-19.3,15.9c-9.3,2.5-25.5-23.8-28-27.6l-0.6,1.4 c11.8,17.7,12.8,27.6,21.1,30.6c0,0,7.2,2.4,12.1,4.6c0-1.9,7-9.6,11.2-15.8c1.3-1.9,2.7-4.2,3.8-6.5 C292.9,827.5,292.8,826.7,292.6,826.2z"/><g><path fill="#333" d="M278,853.1l-1.4-0.8c-4.7-2.1-11.6-4.5-11.6-4.5v0c-8-2-8.1-6.9-11.9-14.3c-2.6-5-5.8-11.3-11.1-18.9 c-13.1-18.9-16.8-25.3-16.9-25.6l-0.6-1l0.9-0.7c0.1-0.1,6.6-5.2,22.9-20.6c6.8-6.4,10.9-10.5,12.9-13.5 c1.8-2.7,1.9-4.6,2.3-8.4c0.1-0.6,0.1-1.2,0.2-1.8c0.7-7.6,8.6-12.6,20-12.6c10.3,0,17.4,1.2,21.7,3.6c3.4,1.9,5.1,4.7,5.1,8.4 c0,9.5-4.7,11.5-8.6,11.5c-1.2,0-2.7-0.1-4.4-0.2c-2.1-0.2-4.5-0.3-7-0.3c-6.6,0-11.7,1.2-16,3.9c-4.4,2.7-12.3,9.7-19.9,17.9 c-3.5,3.7-6.6,7.4-8.9,10.3c-3.4,4.5-3.5,5.7-3.5,5.7c0,0.1,0.1,1.3,3.1,6.3c2,3.2,4.7,7.2,7.7,11.3c6.6,9,12.7,16,15.3,17.4 c0.7,0.4,1.6,0.6,2.7,0.6c4.9,0,12.3-3.6,17.3-5.9c2.2-1.1,4-1.9,5.2-2.3c0.4-0.1,0.7-0.2,1.1-0.2c0.9,0,1.6,0.4,2,1.2 c0.5,0.9,0.8,2.6-1.4,7.6c-1.3,3-3.2,6.3-5,8.9c-1.6,2.4-3.6,4.9-5.5,7.3c-1.5,1.9-3.4,3.6-4.4,5.1c-1.4,1.9-2.2,2.6-2.2,2.7 V853.1z M266.1,845.2c0.4,0.1,6.2,2.1,10.8,4c0.8-1.5,2.5-3.8,5.5-7.6c1.9-2.4,3.8-4.9,5.4-7.2c1.7-2.4,3.4-5.6,4.7-8.3 c1.3-2.9,1.6-4.5,1.6-5.2c-1,0.3-2.7,1.2-4.8,2.1c-5.5,2.6-13,6.2-18.4,6.2c-1.6,0-3-0.3-4-0.9c-3.5-2-10.6-10.7-16.1-18.2 c-3-4.1-5.8-8.2-7.8-11.5c-3.5-5.7-3.5-7.1-3.5-7.7c0-0.9,0.5-2.6,4-7.2c2.3-3,5.5-6.7,9-10.5c6.2-6.7,14.9-15.1,20.6-18.5 c4.7-2.9,10.4-4.3,17.4-4.3c2.6,0,5.1,0.2,7.2,0.3c1.6,0.1,3,0.2,4.2,0.2c2.5,0,5.9-0.9,5.9-8.8c0-1.9-0.4-4.2-3.7-6.1 c-3.8-2.2-10.7-3.3-20.4-3.3c-4.9,0-9.2,1-12.3,2.8c-3,1.8-4.7,4.3-5,7.3c-0.1,0.6-0.1,1.2-0.2,1.8c-0.3,3.8-0.6,6.3-2.7,9.6 c-1.9,2.9-5.2,6.5-13.3,14c-13.2,12.4-19.9,18.2-22.2,20c1.5,2.4,6,9.6,16.3,24.4c5.4,7.8,8.7,14.1,11.3,19.2 C259.3,839.3,261.5,843.5,266.1,845.2z"/></g><g><path fill="#FFF" d="M301.9,752.5c-4.2,0-11.7-1.4-19.3,0.1l0,0c0.5,2.5,2.8,10.5,4.8,12.1c2,1.6,11.1,1.6,13.4,0 c2.3-1.6,2.9-12.4,2.9-12.4l0,0C303.1,752.4,302.5,752.5,301.9,752.5z"/></g><g><path fill="#CCC" d="M296,739.3c0,0,0,0.1,0,0.1c0,0,0,0,0,0c0,0,0,0,0,0c0,0,0,0.1,0,0.1c0,0,0,0,0,0c0,0,0,0,0,0 c0,0,0,0.1,0.1,0.1c0.1,0.1,0.2,0.3,0.4,0.4c0.2,0.1,0.3,0.3,0.6,0.4c0.4,0.3,1,0.6,1.6,0.8c0.6,0.3,1.3,0.6,2,0.8 c0.3,0.1,0.7,0.3,1,0.4l0,0l0,0c0,0,0,0,0,0l0,0l0,0l0.1,0l0.1,0c0.1,0,0.2,0,0.2,0.1c0,0,0.1,0,0.1,0c0,0,0.1,0,0.1,0 c0.1,0,0.2,0,0.2,0c0.3,0.1,0.6,0.1,0.8,0.1c0.3,0,0.5,0,0.7-0.1c0.2-0.1,0.4-0.2,0.6-0.3c0,0,0.1-0.1,0.1-0.1 c0,0,0.1-0.1,0.1-0.1c0,0,0.1-0.1,0.1-0.1c0,0,0.1-0.1,0.1-0.1c0,0,0.1-0.1,0.1-0.1c0,0,0.1-0.1,0.1-0.1c0-0.1,0.1-0.1,0.1-0.1 c0.1-0.1,0.1-0.1,0.1-0.1s0,0.1,0,0.1c0,0.1,0,0.2,0,0.4c0,0,0,0.1,0,0.2c0,0.1,0,0.1,0,0.2c0,0.1,0,0.1-0.1,0.2 c0,0.1-0.1,0.1-0.1,0.2c-0.1,0.3-0.3,0.5-0.6,0.8c-0.3,0.3-0.6,0.5-1,0.6c-0.4,0.1-0.8,0.2-1.3,0.2c-0.1,0-0.2,0-0.3,0 c-0.1,0-0.1,0-0.2,0c-0.1,0-0.1,0-0.2,0c-0.1,0-0.2,0-0.3,0l-0.1,0l-0.1,0l0,0l0,0l0,0l0,0c-0.4-0.1-0.8-0.2-1.2-0.4 c-0.8-0.3-1.5-0.7-2.1-1.2c-0.6-0.5-1.2-1-1.6-1.5c-0.2-0.3-0.3-0.6-0.4-0.8c-0.1-0.3-0.1-0.5-0.1-0.7c0-0.2,0.1-0.4,0.1-0.4 C295.9,739.4,296,739.3,296,739.3z"/></g><g><path fill="#FFF" d="M217.9,746.1c6.7-3.7,11.9-4,15.1-5.4c3.2-1.3,4.2-2.9,6.8-3.8c-3.2,0-5.6-5.7-13.6-2.3 C218.2,738.2,221.3,742,217.9,746.1z"/></g><path fill="#CCC" d="M234.2,735.9c0,0-1.3,2.2-6,3.6c-5.2,1.5-5.4-0.6-5.4-0.6l-3.7,3.6c0,0,0-1.5-0.1-1.5h2.5 c5-1,8.9-0.8,11.5-1.9c0.4-0.2,0.8,0.5,1.2,0.3l2.7-1.2c0.5-0.3,1-0.5,1.5-0.7l0,0.1L234.2,735.9z"/><path fill="#59504E" d="M211.3,751.6c10.1-3.4,6.8,0.6,17.6-3.1c10.8-3.7,4.7-6.2,20.5-13.1c-11,2.3-18.7,6.2-18.7,6.2 l-12.7,4.6L211.3,751.6z"/><g><path fill="#333" d="M211.3,751.6l5.4-6.5c1-1.2,1.3-2.3,1.6-3.7c0.7-2.6,1.4-5.6,7.3-8.1c1.9-0.8,3.7-1.2,5.4-1.2 c3,0,5.1,1.3,6.6,2.3c0.9,0.6,1.7,1.1,2.3,1.1l9.5-0.1l-9,3.1c-1.2,0.4-1.9,0.9-2.9,1.6c-1,0.7-2.1,1.4-3.8,2.2 c-1.2,0.5-2.5,0.8-4.1,1.2c-2.9,0.7-6.6,1.7-10.8,4L211.3,751.6z M231,735.1c-1.3,0-2.6,0.3-4.2,1c-4.4,1.9-4.9,3.7-5.5,6 c0,0.2-0.1,0.4-0.1,0.6c2.9-1.2,5.4-1.8,7.5-2.4c1.5-0.4,2.7-0.7,3.7-1.1c1.4-0.6,2.4-1.2,3.3-1.9c0.1-0.1,0.3-0.2,0.4-0.3 c-0.1-0.1-0.2-0.1-0.3-0.2C234.5,736,233.1,735.1,231,735.1z"/></g><path fill="#CCC" d="M300.7,764.7c0.9-0.6,1.5-2.7,2-4.9c-0.7-0.7-1.2-1-1.3-0.5c-0.3,1.6-2.3,2.3-6.8,2.3 c-6.5,0-8.6-2-9.5-4.5l-0.6,2.4c0.9,2.4,1.9,4.6,2.8,5.3C289.3,766.3,298.4,766.3,300.7,764.7z"/><g><path fill="#333" d="M293.9,767.3c-1.7,0-5.7-0.1-7.4-1.5c-0.4-0.3-1.6-1.3-3.4-6.3c-0.9-2.5-1.6-5.2-1.9-6.6l-0.3-1.3 l1.3-0.3c2.5-0.5,5.2-0.7,8.2-0.7c2.6,0,5.1,0.2,7.2,0.3c1.6,0.1,3,0.2,4.2,0.2c0.5,0,1,0,1.5-0.1l1.7-0.4l-0.1,1.7 c0,0.1-0.1,2.8-0.6,5.7c-0.8,5.7-2,7.1-2.9,7.7C299.5,767.2,295.2,767.3,293.9,767.3z M284.1,753.7c0.3,1.3,0.9,3.1,1.5,4.9 c1.1,3.2,2,4.7,2.5,5.1c0.4,0.3,2.4,0.9,5.7,0.9c3.1,0,5.4-0.5,6.1-1c0,0,1-0.7,1.7-5.9c0.2-1.5,0.4-2.9,0.4-3.9 c-0.1,0-0.2,0-0.3,0c-1.2,0-2.7-0.1-4.4-0.2c-2.1-0.2-4.5-0.3-7-0.3C288.2,753.2,286.1,753.4,284.1,753.7z"/></g><path fill="#CCC" d="M291.7,816.6c0.5,0.8-1.9,2-9.7,4.7c-7.8,2.7-10.6,2.9-9.9-0.7l-2.2,4.3c-0.3,1.7-0.5,3-0.6,3 c0,0,0,0,0.1,0l0.6,0.1c7.2,0.7,20-7,23.9-8.2c0.3-0.1,0.6-0.1,0.8-0.1l0,0c0,0-1-2.4-2.2-4.3 C291.9,816,291.6,816.4,291.7,816.6z"/><g><path fill="#333" d="M271,829.3c-0.4,0-0.8,0-1.1-0.1l0,0l-0.7-0.1l-1.3-0.2l0.2-1.3c0-0.3,1.2-7,1.9-9.5 c0.3-1,1.2-1.8,3.2-2.6c1.4-0.6,3.2-1.2,5.4-1.8c4.1-1.1,8.6-1.9,10.9-1.9c0.9,0,1.5,0.1,1.9,0.4c2.1,1.2,4.1,6,4.5,7l0.4,1 L295,821l-0.5-0.1c0,0-0.1,0-0.3,0.1c-1,0.3-2.8,1.2-4.8,2.1C283.9,825.7,276.4,829.3,271,829.3z M270.9,827 C270.9,827,270.9,827,270.9,827c4.9,0,12.4-3.8,17.3-6.1c1.9-0.9,3.4-1.7,4.5-2.1c-0.9-1.9-2-3.7-2.7-4.2 c-0.1,0-0.3-0.1-0.6-0.1c-1.9,0-5.9,0.7-9.7,1.7c-5.1,1.3-7,2.6-7.3,3C272,820.9,271.3,823,270.9,827z"/></g><path fill="#CCC" d="M286,740.8c0,0,0,0.1,0,0.2c0,0.1,0,0.3,0,0.6c0,0.2-0.2,0.5-0.3,0.8c-0.2,0.3-0.4,0.6-0.8,0.8 c-0.3,0.3-0.7,0.5-1.1,0.7c-0.4,0.2-0.8,0.4-1.3,0.6c-0.9,0.3-1.9,0.6-2.9,0.7c-0.5,0.1-1,0-1.6-0.1l0-0.1h0l0,0.1l0,0.1 l-0.1-0.1l-0.1-0.1h-0.1c-0.1,0-0.3,0.1-0.4,0.1c-0.3,0-0.5,0-0.8-0.1c-0.5-0.1-1-0.3-1.4-0.6c-0.4-0.3-0.8-0.6-1-1 c-0.3-0.4-0.4-0.7-0.5-1.1c-0.1-0.3-0.1-0.6,0-0.9c0-0.2,0.1-0.4,0.1-0.5c0-0.1,0.1-0.2,0.1-0.2s0,0.1,0.1,0.2 c0,0.1,0.1,0.3,0.2,0.5c0.1,0.2,0.2,0.4,0.4,0.6c0.1,0.1,0.2,0.2,0.3,0.3c0,0,0.1,0.1,0.2,0.1c0.1,0,0.1,0.1,0.2,0.1 c0.2,0.2,0.5,0.3,0.9,0.4c0.3,0.1,0.7,0.2,1.1,0.2c0.2,0,0.4-0.1,0.6-0.1c0.1,0,0.2-0.1,0.3-0.1h0.1l0.1,0.1l0.1,0l0,0h0 c0,0,0,0,0,0h0l0,0.1c0.4,0,0.9,0,1.3-0.1c0.9-0.1,1.8-0.2,2.7-0.4c0.8-0.2,1.6-0.3,2.2-0.5c0.3-0.1,0.6-0.2,0.8-0.4 c0.2-0.1,0.4-0.3,0.5-0.4c0,0,0.1-0.1,0.1-0.1c0,0,0,0,0-0.1c0,0,0,0,0,0c0,0,0-0.1,0.1-0.1c0,0,0,0,0,0c0,0,0,0,0,0 C286,740.8,286,740.8,286,740.8z"/><g><path fill="#333" d="M296,738.9c-0.5,1.9,3.6,3.8,5.4,4.3c1.9,0.5,3.6,0.1,4.1-1.8c0.5-1.9-0.6-3.8-2.5-4.2 C301.1,736.6,296.5,737,296,738.9z"/></g><g><path fill="#333" d="M286,740.2c0,2.4-5.5,3.5-7.9,3.5s-4.4-1.1-4.4-3.5s1.9-4.4,4.4-4.4S286,737.8,286,740.2z"/></g></g><g><path fill="#FFF" d="M364.2,772.2c-4.8,0-8.7-3.8-8.7-8.6c0-4.8,3.9-8.7,8.7-8.7s8.6,3.9,8.6,8.7 C372.8,768.4,369,772.2,364.2,772.2z M356.7,778.1h14.9v44.4h-14.9V778.1z"/><path fill="#FFF" d="M446.8,791.4c0,18.1-14.7,32.8-32.8,32.8c-18.2,0-32.9-14.7-32.9-32.8c0-18.1,14.7-32.9,32.9-32.9 C432.1,758.5,446.8,773.3,446.8,791.4z M432.4,791.4c0-10.2-8.2-18.5-18.4-18.5c-10.3,0-18.5,8.3-18.5,18.5 c0,10.2,8.2,18.4,18.5,18.4C424.2,809.8,432.4,801.5,432.4,791.4z"/><path fill="#CCC" d="M452.6,824.1c-2.7,0-5-2.3-5-5c0-2.8,2.3-5,5-5c2.8,0,5,2.3,5,5C457.6,821.9,455.4,824.1,452.6,824.1z"/><path fill="#CCC" d="M476.2,795v27c0,2.3-0.4,5.3-1.4,7.5c-2.1,5.3-7,9.1-12.6,10.2v-8.9c3.2-1.3,5.4-4,5.4-8.8v-27H476.2z"/><path fill="#CCC" d="M506.2,815.1c0,1.3-0.4,2.5-1.1,3.6c-0.7,1.1-1.6,2.1-2.8,2.9c-1.2,0.9-2.5,1.5-4,2 c-1.5,0.5-3.2,0.8-4.9,0.8c-2,0-4-0.3-5.7-1c-1.5-0.6-3-1.3-4.1-2.4c-2.7-2.8-3.2-4.9-3.2-6.8h8.1c0,2.6,2.5,3.9,4.9,3.9 c1.6,0,4.8-0.8,4.8-3c0-2.7-4.5-3.4-7-3.7c-2.3-0.3-4.8-0.9-6.9-2.2c-2-1.2-3.4-3.2-3.4-5.7c0-5.2,5.5-9.4,12.2-9.4 c3.8,0,6.9,0.9,9.1,2.5c2.8,2.1,3.1,4.5,3.1,6h-7.4c0-1.9-3.4-2.4-4.8-2.4c-1.7,0-4.2,0.4-4.2,2.7c0,1.5,2.3,1.9,5.3,2.3 c2.6,0.4,5.5,0.9,7.9,2.3c1.3,0.8,2.3,1.7,3,2.9c0.3,0.7,0.7,1.4,0.8,2.2C506.1,813.2,506.2,814.1,506.2,815.1z"/></g></g></g></switch></svg>